<svg id="Layer_1" data-name="Layer 1" xmlns="http://www.w3.org/2000/svg" viewBox="0 0 978.16 1130.76"><defs><style>.cls-1{fill:#ffe636;}.cls-2{fill:silver;}.cls-3{fill:#dd8f21;}.cls-4{fill:#ffea37;}.cls-5{fill:#ffdf34;}.cls-6{fill:#ffcc30;}.cls-7{fill:#ffb52a;}.cls-8{fill:#f19c24;}.cls-9{fill:#cd841f;}.cls-10{fill:#a96d19;}.cls-11{fill:#de8f21;}.cls-12{fill:#bf7b1d;}.cls-13{fill:#a56b19;}.cls-14{fill:#ffe536;}.cls-15{fill:#ffd331;}.cls-16{fill:#ffbd2c;}.cls-17{fill:#ffa727;}.cls-18{fill:#e89623;}.cls-19{fill:#ffc02d;}.cls-20{fill:#ffae29;}.cls-21{fill:#ffe436;}.cls-22{fill:#ffde34;}.cls-23{fill:#ffd131;}.cls-24{fill:#ffe135;}.cls-25{fill:#ffba2c;}.cls-26{fill:#ffd231;}.cls-27{fill:#ffeb37;}.cls-28{fill:#c27e1d;}.cls-29{fill:#ffe837;}.cls-30{fill:#c6801e;}.cls-31{fill:#d98c21;}.cls-32{fill:#ffcd30;}.cls-33{fill:#ffe435;}.cls-34{fill:#ffd933;}.cls-35{fill:#727272;}.cls-36{fill:#ffbc2c;}.cls-37{fill:#ffda33;}.cls-38{fill:#ffe335;}.cls-39{fill:#ffe937;}.cls-40{fill:#ffd031;}.cls-41{fill:#ffb62b;}.cls-42{fill:#f09b24;}.cls-43{fill:#cf861f;}.cls-44{fill:#ae701a;}.cls-45{fill:#ffaa28;}.cls-46{fill:#ffa927;}.cls-47{fill:#ffe736;}.cls-48{fill:#b4741b;}.cls-49{fill:#fea426;}.cls-50{fill:#f29d25;}.cls-51{fill:#ffbb2c;}.cls-52{fill:#ffd532;}.cls-53{fill:#ffe235;}.cls-54{fill:#ffce30;}.cls-55{fill:#ffdb33;}.cls-56{fill:#cc841f;}.cls-57{fill:#ffd432;}.cls-58{fill:#ffc72f;}.cls-59{fill:#ffb129;}.cls-60{fill:#ee9a24;}.cls-61{fill:#ef9b24;}.cls-62{fill:#ffb22a;}.cls-63{fill:#ffc42e;}.cls-64{fill:#ffd732;}.cls-65{fill:#ddd;}.cls-66{fill:#fff;}.cls-67{fill:#dedede;}.cls-68{fill:#e78205;}.cls-69{fill:#ac6104;}.cls-70{fill:#b86804;}.cls-71{fill:#c46f04;}.cls-72{fill:#ce7404;}.cls-73{fill:#da7b05;}.cls-74{fill:#f08705;}.cls-75{fill:#f48a05;}.cls-76{fill:#b16404;}.cls-77{fill:#c06c04;}.cls-78{fill:#d97a05;}.cls-79{fill:#e48105;}.cls-80{fill:#ee8605;}.cls-81{fill:#f28905;}.cls-82{fill:#ffc908;}.cls-83{fill:#e38005;}.cls-84{fill:#af6304;}.cls-85{fill:#c36e04;}.cls-86{fill:#d17604;}.cls-87{fill:#f28805;}.cls-88{fill:#ab6004;}.cls-89{fill:#b76704;}.cls-90{fill:#dc7c05;}.cls-91{fill:#e48005;}.cls-92{fill:#ed8605;}.cls-93{fill:#ea8405;}.cls-94{fill:#e88305;}.cls-95{fill:#de7d05;}.cls-96{fill:#c67004;}.cls-97{fill:#b96804;}.cls-98{fill:#ae6204;}.cls-99{fill:#bf6c04;}.cls-100{fill:#e07e05;}.cls-101{fill:#f48905;}.cls-102{fill:#d57805;}.cls-103{fill:#b56604;}.cls-104{fill:#b26404;}.cls-105{fill:#ca7204;}.cls-106{fill:#f38905;}.cls-107{fill:#dd7c05;}.cls-108{fill:#eb8405;}.cls-109{fill:#ec8505;}.cls-110{fill:#cb7204;}.cls-111{fill:#bb6a04;}.cls-112{fill:#d37704;}.cls-113{fill:#e27f05;}.cls-114{fill:#d47704;}.cls-115{fill:#c97104;}.cls-116{fill:#dd7d05;}.cls-117{fill:#ef8705;}.cls-118{fill:#e98305;}.cls-119{fill:#c56f04;}.cls-120{fill:#ad6104;}.cls-121{fill:#d47805;}.cls-122{fill:#f8a025;}.cls-123{fill:#c8811e;}.cls-124{fill:#a95f03;}.cls-125{fill:#bb6904;}.cls-126{fill:#c57f1e;}.cls-127{fill:#f49e25;}.cls-128{fill:#ffc52e;}.cls-129{fill:#ffe836;}.cls-130{fill:none;stroke:#000;stroke-miterlimit:10;stroke-width:1.5px;}</style></defs><polygon class="cls-1" points="69.64 587.39 77.77 582.67 88.36 588.83 80.23 593.55 69.64 587.39"/><polygon class="cls-2" points="77.77 582.67 69.64 587.39 69.64 590.34 77.93 595.15 39.81 617.29 39.81 513.86 114.04 470.74 114.04 480.37 69.64 506.16 69.64 509.11 77.77 513.83 77.77 582.67"/><polygon class="cls-3" points="69.64 509.11 69.64 506.16 80.23 512.31 80.23 515.26 77.77 513.83 69.64 509.11"/><polygon class="cls-1" points="69.64 506.16 114.04 480.37 116.89 478.72 127.48 484.87 80.23 512.31 69.64 506.16"/><polygon class="cls-2" points="116.89 478.72 114.04 480.37 114.04 470.74 207.81 416.28 207.81 428.52 205.56 427.21 177.45 443.54 177.45 446.49 188.05 452.64 190.41 451.27 190.56 451.2 190.88 452.47 191.61 462.94 191.61 478.35 173 458.44 162.4 452.28 121.71 475.92 121.71 478.87 132.31 485.02 132.88 484.69 132.88 529.44 132.24 537.28 130.34 545.23 128.84 548.98 126.91 552.21 124.53 554.94 121.71 557.15 121.71 560.1 130 564.91 127.48 566.37 127.48 566.1 118.99 561.17 118.99 492.76 127.48 487.82 127.48 484.87 116.89 478.72"/><polygon class="cls-3" points="121.71 560.1 121.71 557.15 132.31 563.3 132.31 566.25 130 564.91 121.71 560.1"/><polygon class="cls-4" points="121.71 557.15 124.53 554.94 135.13 561.09 132.31 563.3 121.71 557.15"/><polygon class="cls-4" points="124.53 554.94 126.91 552.21 137.5 558.37 135.13 561.09 124.53 554.94"/><polygon class="cls-5" points="126.91 552.21 128.84 548.98 139.44 555.13 137.5 558.37 126.91 552.21"/><polygon class="cls-6" points="128.84 548.98 130.34 545.23 140.93 551.39 139.44 555.13 128.84 548.98"/><polygon class="cls-7" points="130.34 545.23 132.24 537.28 142.84 543.44 140.93 551.39 130.34 545.23"/><polygon class="cls-8" points="132.24 537.28 132.88 529.44 143.47 535.6 142.84 543.44 132.24 537.28"/><polygon class="cls-3" points="121.71 478.87 121.71 475.92 132.31 482.07 132.31 485.02 121.71 478.87"/><polygon class="cls-9" points="191.61 462.94 190.88 452.47 201.47 458.63 202.2 469.09 191.61 462.94"/><polygon class="cls-10" points="190.88 452.47 190.56 451.2 192.6 450.3 200.55 454.92 201.47 458.63 190.88 452.47"/><polygon class="cls-3" points="177.45 446.49 177.45 443.54 188.05 449.69 188.05 452.64 177.45 446.49"/><polygon class="cls-1" points="177.45 443.54 205.56 427.21 207.81 428.52 216.15 433.37 188.05 449.69 177.45 443.54"/><polygon class="cls-1" points="121.71 475.92 162.4 452.28 173 458.44 132.31 482.07 121.71 475.92"/><polygon class="cls-3" points="69.64 590.34 69.64 587.39 80.23 593.55 80.23 596.5 77.93 595.15 69.64 590.34"/><polygon class="cls-3" points="77.77 582.67 77.77 513.83 80.23 515.26 88.36 510.54 88.36 588.83 77.77 582.67"/><polygon class="cls-3" points="132.88 529.44 132.88 484.69 136.83 482.39 143.47 486.25 143.47 535.6 132.88 529.44"/><polygon class="cls-3" points="191.61 478.35 191.61 462.94 202.2 469.09 202.2 489.68 191.61 478.35"/><polygon class="cls-11" points="80.23 596.5 80.23 593.55 88.36 588.83 88.36 510.54 80.23 515.26 80.23 512.31 127.48 484.87 127.48 487.82 118.99 492.76 118.99 561.17 118.99 571.04 127.48 566.1 127.48 566.37 127.48 569.05 114.04 576.86 80.23 596.5"/><polygon class="cls-1" points="127.48 566.1 118.99 571.04 118.99 561.17 127.48 566.1"/><polygon class="cls-11" points="132.31 566.25 132.31 563.3 135.13 561.09 137.5 558.37 139.44 555.13 140.93 551.39 142.84 543.44 143.47 535.6 143.47 486.25 138.86 481.21 136.83 482.39 132.88 484.69 132.31 485.02 132.31 482.07 173 458.44 191.61 478.35 202.2 489.68 202.2 469.09 201.47 458.63 200.55 454.92 199.27 452.22 197.61 450.51 195.58 449.79 195.16 449.83 193.18 450.04 192.6 450.3 190.56 451.2 190.41 451.27 188.05 452.64 188.05 449.69 216.15 433.37 216.15 436.32 213.53 438.44 211.27 441.03 209.35 444.09 207.81 447.55 205.68 456.08 204.98 466.41 204.98 521.36 204.98 524.04 188.05 533.88 146.36 489.29 146.36 494.46 146.36 529.4 147.18 540.14 147.65 541.91 148.2 543.96 148.32 544.19 149.64 546.74 149.86 546.95 151.48 548.49 153.73 549.2 156.4 548.88 159.47 547.53 159.47 547.79 159.47 550.48 132.31 566.25"/><polygon class="cls-2" points="213.53 438.44 216.15 436.32 216.15 433.37 207.81 428.52 207.81 416.28 301.57 361.82 301.57 371.45 297.11 374.04 297.11 376.99 301.57 379.58 301.57 382.17 292.34 376.81 264.24 393.13 264.24 396.08 274.83 402.24 277.19 400.87 277.35 400.8 277.66 402.07 278.39 412.53 278.39 427.94 259.78 408.03 249.19 401.88 208.5 425.51 208.5 428.46 219.09 434.62 219.66 434.28 219.66 479.04 219.03 486.88 217.12 494.83 215.63 498.57 213.69 501.81 211.31 504.53 208.5 506.74 208.5 509.69 216.78 514.51 207.81 519.72 207.81 447.55 209.35 444.09 211.27 441.03 213.53 438.44"/><polygon class="cls-3" points="208.5 509.69 208.5 506.74 219.09 512.9 219.09 515.85 216.78 514.51 208.5 509.69"/><polygon class="cls-4" points="208.5 506.74 211.31 504.53 221.91 510.69 219.09 512.9 208.5 506.74"/><polygon class="cls-4" points="211.31 504.53 213.69 501.81 224.29 507.96 221.91 510.69 211.31 504.53"/><polygon class="cls-5" points="213.69 501.81 215.63 498.57 226.22 504.73 224.29 507.96 213.69 501.81"/><polygon class="cls-6" points="215.63 498.57 217.12 494.83 227.72 500.98 226.22 504.73 215.63 498.57"/><polygon class="cls-7" points="217.12 494.83 219.03 486.88 229.62 493.03 227.72 500.98 217.12 494.83"/><polygon class="cls-8" points="219.03 486.88 219.66 479.04 230.26 485.19 229.62 493.03 219.03 486.88"/><polygon class="cls-3" points="208.5 428.46 208.5 425.51 219.09 431.66 219.09 434.62 208.5 428.46"/><polygon class="cls-1" points="208.5 425.51 249.19 401.88 259.78 408.03 219.09 431.66 208.5 425.51"/><polygon class="cls-3" points="278.39 427.94 278.39 412.53 288.99 418.69 288.99 439.28 278.39 427.94"/><polygon class="cls-9" points="278.39 412.53 277.66 402.07 288.25 408.22 288.99 418.69 278.39 412.53"/><polygon class="cls-10" points="277.66 402.07 277.35 400.8 279.39 399.89 287.34 404.51 288.25 408.22 277.66 402.07"/><polygon class="cls-3" points="264.24 396.08 264.24 393.13 274.83 399.29 274.83 402.24 264.24 396.08"/><polygon class="cls-1" points="264.24 393.13 292.34 376.81 301.57 382.17 302.94 382.96 274.83 399.29 264.24 393.13"/><polygon class="cls-3" points="297.11 376.99 297.11 374.04 307.71 380.19 307.71 383.14 305.14 381.65 301.57 379.58 297.11 376.99"/><polygon class="cls-1" points="297.11 374.04 301.57 371.45 364.97 334.63 375.56 340.78 307.71 380.19 297.11 374.04"/><polygon class="cls-2" points="364.97 334.63 301.57 371.45 301.57 361.82 395.33 307.36 395.33 316.99 377.4 327.41 377.4 330.36 385.68 335.17 385.68 403.83 377.82 408.4 377.82 392.52 367.22 386.36 364.97 387.67 363.62 394.67 363.08 396.38 363.08 367.68 352.49 361.52 350.23 362.83 350 367.93 349.29 372.52 348.11 376.63 346.46 380.25 346.36 380.4 346.36 360.7 347.61 359.97 353.6 356.94 358.76 355.31 360.86 355.19 362.06 358.39 362.61 362.43 373.2 368.58 375.56 367.21 375.56 340.78 364.97 334.63"/><polygon class="cls-12" points="362.61 362.43 362.06 358.39 372.65 364.55 373.2 368.58 362.61 362.43"/><polygon class="cls-13" points="362.06 358.39 360.86 355.19 361.12 355.18 371.37 361.14 372.65 364.55 362.06 358.39"/><polygon class="cls-14" points="346.36 380.4 346.46 380.25 357.05 386.4 353.03 392.16 346.36 388.28 346.36 380.4"/><polygon class="cls-15" points="346.46 380.25 348.11 376.63 358.7 382.79 357.05 386.4 346.46 380.25"/><polygon class="cls-16" points="348.11 376.63 349.29 372.52 359.88 378.68 358.7 382.79 348.11 376.63"/><polygon class="cls-17" points="349.29 372.52 350 367.93 360.59 374.08 359.88 378.68 349.29 372.52"/><polygon class="cls-18" points="350 367.93 350.23 362.83 360.83 368.99 360.59 374.08 350 367.93"/><polygon class="cls-1" points="350.23 362.83 352.49 361.52 363.08 367.68 360.83 368.99 350.23 362.83"/><polygon class="cls-19" points="363.08 396.38 363.62 394.67 374.21 400.82 372.1 407.56 363.08 402.32 363.08 396.38"/><polygon class="cls-20" points="363.62 394.67 364.97 387.67 375.56 393.83 374.21 400.82 363.62 394.67"/><polygon class="cls-1" points="364.97 387.67 367.22 386.36 377.82 392.52 375.56 393.83 364.97 387.67"/><polygon class="cls-1" points="377.82 408.4 385.68 403.83 396.27 409.98 387.99 414.8 377.82 408.89 377.82 408.4"/><polygon class="cls-1" points="377.4 327.41 395.33 316.99 435.76 293.51 446.35 299.67 387.99 333.56 377.4 327.41"/><polygon class="cls-2" points="435.76 293.51 395.33 316.99 395.33 307.36 489.1 252.9 489.1 356.34 469.18 367.91 472.18 361.59 474.04 353.64 467.58 349.89 467.69 344.96 467.17 339.16 465.6 335.44 458.43 331.28 461.36 327.87 465.18 321.15 467.54 314.03 468.32 306.8 467.31 299.88 466.04 297.26 464.26 295.2 453.67 289.04 451.02 287.98 447.16 288.37 442.07 290.22 435.76 293.51"/><polygon class="cls-21" points="435.76 293.51 442.07 290.22 452.66 296.37 446.35 299.67 435.76 293.51"/><polygon class="cls-22" points="442.07 290.22 447.16 288.37 457.75 294.53 452.66 296.37 442.07 290.22"/><polygon class="cls-23" points="447.16 288.37 451.02 287.98 461.62 294.14 457.75 294.53 447.16 288.37"/><polygon class="cls-7" points="451.02 287.98 453.67 289.04 464.26 295.2 461.62 294.14 451.02 287.98"/><polygon class="cls-3" points="219.66 479.04 219.66 434.28 223.61 431.99 230.26 435.85 230.26 485.19 219.66 479.04"/><polygon class="cls-3" points="385.68 403.83 385.68 335.17 387.99 336.51 396.27 331.7 396.27 409.98 385.68 403.83"/><polygon class="cls-3" points="377.4 330.36 377.4 327.41 387.99 333.56 387.99 336.51 385.68 335.17 377.4 330.36"/><polygon class="cls-2" points="205.68 456.08 207.78 447.62 207.81 519.72 204.98 521.36 204.98 466.41 205.68 456.08"/><polygon class="cls-2" points="188.05 533.88 204.98 524.04 204.98 521.36 207.81 519.72 207.81 623.15 114.04 677.61 114.04 576.86 127.48 569.05 127.48 566.37 130 564.91 132.31 566.25 159.47 550.48 159.47 547.79 185.74 532.54 188.05 533.88"/><polygon class="cls-13" points="146.36 489.29 188.05 533.88 185.74 532.54 177.45 527.72 146.36 494.46 146.36 489.29"/><polygon class="cls-2" points="146.36 494.46 177.45 527.72 185.74 532.54 159.47 547.79 159.47 547.53 148.87 541.37 147.65 541.91 147.18 540.14 146.36 529.4 146.36 494.46"/><polygon class="cls-24" points="147.65 541.91 148.87 541.37 159.47 547.53 156.4 548.88 148.32 544.19 148.2 543.96 147.65 541.91"/><polygon class="cls-25" points="153.73 549.2 151.48 548.49 149.86 546.95 153.73 549.2"/><polygon class="cls-26" points="156.4 548.88 153.73 549.2 149.86 546.95 149.64 546.74 148.32 544.19 156.4 548.88"/><polygon class="cls-13" points="138.86 481.21 143.47 486.25 136.83 482.39 138.86 481.21"/><polygon class="cls-13" points="199.27 452.22 200.55 454.92 192.6 450.3 193.18 450.04 195.16 449.83 199.27 452.22"/><polygon class="cls-13" points="197.61 450.51 199.27 452.22 195.16 449.83 195.58 449.79 197.61 450.51"/><polygon class="cls-11" points="219.09 515.85 219.09 512.9 221.91 510.69 224.29 507.96 226.22 504.73 227.72 500.98 229.62 493.03 230.26 485.19 230.26 435.85 225.64 430.81 223.61 431.99 219.66 434.28 219.09 434.62 219.09 431.66 259.78 408.03 278.39 427.94 288.99 439.28 288.99 418.69 288.25 408.22 287.34 404.51 286.05 401.81 284.4 400.11 282.37 399.38 281.95 399.43 279.97 399.64 279.39 399.89 277.35 400.8 277.19 400.87 274.83 402.24 274.83 399.29 302.94 382.96 302.94 385.92 301.57 387.02 300.32 388.04 298.05 390.63 296.13 393.69 294.56 397.21 292.47 405.67 291.77 416.01 291.77 470.95 291.77 473.63 274.83 483.47 233.14 438.88 233.14 444.06 233.14 479 233.96 489.73 234.44 491.5 234.99 493.55 235.11 493.79 236.42 496.33 236.64 496.55 238.26 498.08 240.52 498.8 243.18 498.48 246.25 497.12 246.25 497.39 246.25 500.07 219.09 515.85"/><polygon class="cls-2" points="298.05 390.63 300.32 388.04 301.57 387.02 301.57 452.68 297.11 455.27 297.11 458.22 301.57 460.81 301.57 465.26 291.77 470.95 291.77 416.01 292.47 405.67 294.56 397.21 296.13 393.69 298.05 390.63"/><polygon class="cls-3" points="297.11 458.22 297.11 455.27 307.71 461.43 307.71 464.38 305.4 463.03 301.57 460.81 297.11 458.22"/><polygon class="cls-1" points="297.11 455.27 301.57 452.68 305.14 450.61 315.73 456.76 307.71 461.43 297.11 455.27"/><polygon class="cls-2" points="305.14 450.61 301.57 452.68 301.57 387.02 302.94 385.92 302.94 382.96 301.57 382.17 301.57 379.58 305.14 381.65 305.14 450.61"/><polygon class="cls-3" points="305.14 450.61 305.14 381.65 307.71 383.14 315.73 378.48 315.73 456.76 305.14 450.61"/><polygon class="cls-2" points="274.83 483.47 291.77 473.63 291.77 470.95 301.57 465.26 301.57 568.69 207.81 623.15 207.81 519.72 216.78 514.51 219.09 515.85 246.25 500.07 246.25 497.39 272.52 482.13 274.83 483.47"/><polygon class="cls-13" points="233.14 438.88 274.83 483.47 272.52 482.13 264.24 477.32 233.14 444.06 233.14 438.88"/><polygon class="cls-2" points="233.14 444.06 264.24 477.32 272.52 482.13 246.25 497.39 246.25 497.12 235.66 490.96 234.44 491.5 233.96 489.73 233.14 479 233.14 444.06"/><polygon class="cls-24" points="234.44 491.5 235.66 490.96 246.25 497.12 243.18 498.48 235.11 493.79 234.99 493.55 234.44 491.5"/><polygon class="cls-25" points="240.52 498.8 238.26 498.08 236.64 496.55 240.52 498.8"/><polygon class="cls-26" points="243.18 498.48 240.52 498.8 236.64 496.55 236.42 496.33 235.11 493.79 243.18 498.48"/><polygon class="cls-13" points="225.64 430.81 230.26 435.85 223.61 431.99 225.64 430.81"/><polygon class="cls-13" points="286.05 401.81 287.34 404.51 279.39 399.89 279.97 399.64 281.95 399.43 286.05 401.81"/><polygon class="cls-13" points="284.4 400.11 286.05 401.81 281.95 399.43 282.37 399.38 284.4 400.11"/><polygon class="cls-11" points="307.71 464.38 307.71 461.43 315.73 456.76 315.73 378.48 307.71 383.14 307.71 380.19 375.56 340.78 375.56 367.21 373.2 368.58 372.65 364.55 371.37 361.14 369.36 358.36 366.62 356.21 364.44 355.5 363.1 355.06 361.12 355.18 360.86 355.19 358.76 355.31 353.6 356.94 347.61 359.97 346.36 360.7 346.36 380.4 346.36 388.28 346.36 394.67 346.36 397.17 348.5 395.92 353.03 392.16 357.05 386.4 358.7 382.79 359.88 378.68 360.59 374.08 360.83 368.99 363.08 367.68 363.08 396.38 363.08 402.32 363.08 409.61 362.34 410.04 360.83 410.92 359.93 403.36 358.81 400.72 357.24 398.85 353.26 397.37 353.09 397.4 350.98 397.75 350.59 397.93 349.48 398.43 348.5 398.87 346.36 400.12 346.36 424.7 346.36 424.99 346.36 432.22 346.36 438.98 351.77 435.37 356.78 431.04 361.39 426.01 365.6 420.27 369.23 414.04 372.1 407.56 374.21 400.82 375.56 393.83 377.82 392.52 377.82 408.4 377.82 408.89 377.82 411.84 377.82 420.97 377.82 423.65 307.71 464.38"/><polygon class="cls-2" points="307.71 464.38 377.82 423.65 377.82 420.97 385.68 416.4 387.99 417.75 395.33 413.48 395.33 514.23 301.57 568.69 301.57 465.26 305.4 463.03 307.71 464.38"/><polygon class="cls-13" points="369.36 358.36 371.37 361.14 361.12 355.18 363.1 355.06 364.44 355.5 369.36 358.36"/><polygon class="cls-13" points="366.62 356.21 369.36 358.36 364.44 355.5 366.62 356.21"/><polygon class="cls-1" points="348.5 395.92 346.36 397.17 346.36 394.67 348.5 395.92"/><polygon class="cls-27" points="353.03 392.16 348.5 395.92 346.36 394.67 346.36 388.28 353.03 392.16"/><polygon class="cls-28" points="359.93 403.36 360.83 410.92 357.87 409.2 350.23 404.77 349.48 398.43 350.59 397.93 359.93 403.36"/><polygon class="cls-2" points="349.48 398.43 350.23 404.77 357.87 409.2 355 414.11 350.79 419.86 346.36 424.7 346.36 400.12 348.5 398.87 349.48 398.43"/><polygon class="cls-27" points="346.36 424.7 350.79 419.86 361.39 426.01 356.78 431.04 346.36 424.99 346.36 424.7"/><polygon class="cls-1" points="350.79 419.86 355 414.11 365.6 420.27 361.39 426.01 350.79 419.86"/><polygon class="cls-22" points="355 414.11 357.87 409.2 360.83 410.92 362.34 410.04 369.23 414.04 365.6 420.27 355 414.11"/><polygon class="cls-13" points="358.81 400.72 359.93 403.36 350.59 397.93 350.98 397.75 353.09 397.4 358.81 400.72"/><polygon class="cls-13" points="357.24 398.85 358.81 400.72 353.09 397.4 353.26 397.37 357.24 398.85"/><polygon class="cls-29" points="351.77 435.37 346.36 438.98 346.36 432.22 351.77 435.37"/><polygon class="cls-27" points="356.78 431.04 351.77 435.37 346.36 432.22 346.36 424.99 356.78 431.04"/><polygon class="cls-23" points="372.1 407.56 369.23 414.04 362.34 410.04 363.08 409.61 363.08 402.32 372.1 407.56"/><path class="cls-11" d="M474,353.64l-1.86,7.95-3,6.32-.21.45-4.58,5.6-5.92,4.42-5.26,2.67-4.34,1.37-3.52.06-.72-.31-2.08-.92-2.08-2.47-1.38-3.68-.77-7.42L438.07,354l-.38-3.83-1.14-1.82h-2.21L431,349.85l-.23.11-3.23,2-.65.4V392.2l7.08-4.11v3l-38.65,22.44L388,417.75V414.8l8.28-4.82V331.7L388,336.51v-2.95l58.36-33.89,6.31-3.3,5.09-1.84,3.87-.39,2.64,1.06,1.78,2.06,1.27,2.62,1,6.92-.78,7.23-2.36,7.13-3.82,6.71-2.93,3.41-.14.16-2.08,2.43,6-.16,3.4,1.73,1.57,3.72.52,5.8-.11,4.93-.06,2.14-.11,4.84,0,1.14.29,2.23,0,.27,1,.32,1.55-2.31,1.23-4.2Zm-35.87-19.78V316.09l-.38-4.2L436.65,310l-2.08.06h-.24l-3.64,1.72-.28.13-2.83,1.65-.68.4v35.46l1.83-1.06,4.62-3.19,2.86-3.16,1.47-3.6Z"/><polygon class="cls-2" points="464.39 373.96 468.97 368.36 469.18 367.91 489.1 356.34 489.1 459.77 395.33 514.23 395.33 413.48 433.98 391.04 433.98 388.35 444.63 382.17 445.35 382.48 448.87 382.42 453.21 381.05 458.47 378.38 464.39 373.96"/><polygon class="cls-13" points="440.47 378.78 442.55 381.25 431.96 375.1 429.87 372.62 440.47 378.78"/><polygon class="cls-2" points="429.87 372.62 431.96 375.1 442.55 381.25 444.63 382.17 433.98 388.35 433.98 388.08 426.9 383.97 426.9 352.33 427.55 351.93 427.73 361.52 428.5 368.95 429.87 372.62"/><polygon class="cls-13" points="429.87 372.62 428.5 368.95 439.09 375.1 440.47 378.78 429.87 372.62"/><polygon class="cls-30" points="428.5 368.95 427.73 361.52 438.32 367.68 439.09 375.1 428.5 368.95"/><polygon class="cls-31" points="427.73 361.52 427.55 351.93 430.78 349.95 431.01 349.85 438.07 353.94 438.32 367.68 427.73 361.52"/><polygon class="cls-30" points="437.69 350.12 438.07 353.94 431.01 349.85 434.35 348.31 434.57 348.31 437.69 350.12"/><polygon class="cls-13" points="436.55 348.3 437.69 350.12 434.57 348.31 436.55 348.3"/><polygon class="cls-1" points="433.98 388.08 426.9 392.2 426.9 383.97 433.98 388.08"/><polygon class="cls-3" points="387.99 414.8 387.99 417.75 385.68 416.4 377.82 411.84 377.82 408.89 387.99 414.8"/><polygon class="cls-32" points="462.2 333.71 456.21 333.87 458.29 331.44 462.2 333.71"/><polygon class="cls-32" points="465.6 335.44 462.2 333.71 458.29 331.44 458.43 331.28 465.6 335.44"/><polygon class="cls-33" points="470.24 358.52 468.69 360.83 467.67 360.24 467.38 358.01 467.41 356.87 470.24 358.52"/><polygon class="cls-16" points="471.47 354.32 470.24 358.52 467.41 356.87 467.52 352.03 471.47 354.32"/><polygon class="cls-34" points="474.04 353.64 471.47 354.32 467.52 352.03 467.58 349.89 474.04 353.64"/><polygon class="cls-35" points="489.1 356.34 489.1 252.9 582.85 307.37 582.85 317.88 576.59 314.24 563.26 321.98 563.26 324.87 566.97 327.71 569.62 331.3 571.21 335.64 571.74 340.74 571.2 345.37 569.74 350.39 569.52 350.92 560.27 313.13 564.99 310.39 564.99 307.5 523.87 283.61 510.53 291.35 510.53 294.24 515.75 297.27 536.49 383.87 489.1 356.34"/><polygon class="cls-1" points="523.87 283.61 564.99 307.5 551.66 315.25 510.53 291.35 523.87 283.61"/><polygon class="cls-11" points="564.99 307.5 564.99 310.39 560.27 313.13 551.66 318.13 551.66 315.25 564.99 307.5"/><polygon class="cls-25" points="560.27 313.13 569.52 350.92 559.95 374.02 545.38 314.48 551.66 318.13 560.27 313.13"/><polygon class="cls-1" points="576.59 314.24 582.85 317.88 599.64 327.63 586.31 335.37 563.26 321.98 576.59 314.24"/><polygon class="cls-35" points="599.64 327.63 582.85 317.88 582.85 307.37 676.61 361.83 676.61 370.46 675.44 369.9 670.75 368.71 666.5 368.81 662.7 370.19 649.37 377.93 646.23 380.47 643.99 384.04 642.65 388.64 642.2 394.27 642.49 398.62 643.35 403.14 644.78 407.85 646.78 412.74 647.14 413.38 639.91 417.58 639.91 430.55 639.26 430.17 639.26 362.7 647.15 358.12 647.15 355.23 603.25 329.72 591.1 336.78 592.69 334.55 599.64 330.52 599.64 327.63"/><polygon class="cls-13" points="592.69 334.55 591.1 336.78 589.91 337.47 589.91 338.16 576.92 345.71 580.02 341.37 584.89 338.54 586.31 338.26 592.69 334.55"/><polygon class="cls-11" points="599.64 327.63 599.64 330.52 592.69 334.55 586.31 338.26 586.31 335.37 599.64 327.63"/><polygon class="cls-1" points="603.25 329.72 647.15 355.23 633.82 362.97 589.91 337.47 591.1 336.78 603.25 329.72"/><polygon class="cls-11" points="647.15 355.23 647.15 358.12 639.26 362.7 633.82 365.86 633.82 362.97 647.15 355.23"/><polygon class="cls-11" points="639.26 362.7 639.26 430.17 625.93 437.92 625.93 361.27 633.82 365.86 639.26 362.7"/><polygon class="cls-1" points="639.26 430.17 639.91 430.55 639.91 438.96 633.82 442.5 625.93 437.92 639.26 430.17"/><polygon class="cls-36" points="662.7 370.19 666.5 368.81 653.17 376.55 649.37 377.93 662.7 370.19"/><polygon class="cls-32" points="666.5 368.81 670.75 368.71 657.42 376.46 653.17 376.55 666.5 368.81"/><polygon class="cls-37" points="670.75 368.71 675.44 369.9 662.11 377.65 657.42 376.46 670.75 368.71"/><polygon class="cls-38" points="675.44 369.9 676.61 370.46 680.58 372.37 667.25 380.12 662.11 377.65 675.44 369.9"/><polygon class="cls-35" points="680.58 372.37 676.61 370.46 676.61 361.83 770.37 416.3 770.37 440.55 760.98 446 756.64 449.88 753.54 455.48 751.68 462.79 751.06 471.83 751.7 481.82 753.6 491.5 755.74 497.84 750.65 494.88 750.65 427.41 758.55 422.83 758.55 419.94 714.64 394.44 706.89 398.94 706.89 385.75 697.93 389.09 692.7 382.46 688.23 377.93 680.58 372.37"/><polygon class="cls-39" points="680.58 372.37 688.23 377.93 674.9 385.67 667.25 380.12 680.58 372.37"/><polygon class="cls-27" points="688.23 377.93 692.7 382.46 679.37 390.2 674.9 385.67 688.23 377.93"/><polygon class="cls-39" points="692.7 382.46 697.93 389.09 684.6 396.83 679.37 390.2 692.7 382.46"/><polygon class="cls-36" points="697.93 389.09 706.89 385.75 693.56 393.5 684.6 396.83 697.93 389.09"/><polygon class="cls-11" points="706.89 385.75 706.89 398.94 701.31 402.18 701.31 405.07 706.89 408.31 706.89 416.24 699.88 420.31 693.56 423.98 693.56 393.5 706.89 385.75"/><polygon class="cls-35" points="706.89 416.24 706.89 408.31 708.86 409.45 708.86 477.32 703.11 480.66 686.04 470.75 688.23 469.86 701.56 462.11 703.87 460.33 705.73 457.85 707.05 454.64 707.85 450.69 708.11 446.02 707.66 439.58 706.31 433.42 703.79 427.11 699.88 420.31 706.89 416.24"/><polygon class="cls-24" points="699.88 420.31 703.79 427.11 690.46 434.86 686.52 428 693.5 423.95 699.88 420.31"/><polygon class="cls-40" points="703.79 427.11 706.31 433.42 692.98 441.16 690.46 434.86 703.79 427.11"/><polygon class="cls-41" points="706.31 433.42 707.66 439.58 694.33 447.32 692.98 441.16 706.31 433.42"/><polygon class="cls-42" points="707.66 439.58 708.11 446.02 694.78 453.76 694.33 447.32 707.66 439.58"/><polygon class="cls-43" points="708.11 446.02 707.85 450.69 694.51 458.44 694.78 453.76 708.11 446.02"/><polygon class="cls-44" points="707.85 450.69 707.05 454.64 693.72 462.38 694.51 458.44 707.85 450.69"/><polygon class="cls-13" points="707.05 454.64 705.73 457.85 692.4 465.59 693.72 462.38 707.05 454.64"/><polygon class="cls-13" points="705.73 457.85 703.87 460.33 690.54 468.08 692.4 465.59 705.73 457.85"/><polygon class="cls-45" points="703.87 460.33 701.56 462.11 688.23 469.86 690.54 468.08 703.87 460.33"/><polygon class="cls-1" points="714.64 394.44 758.55 419.94 745.22 427.68 701.31 402.18 706.89 398.94 714.64 394.44"/><polygon class="cls-11" points="758.55 419.94 758.55 422.83 750.65 427.41 745.22 430.57 745.22 427.68 758.55 419.94"/><polygon class="cls-11" points="750.65 427.41 750.65 494.88 737.32 502.63 737.32 425.99 745.22 430.57 750.65 427.41"/><polygon class="cls-1" points="750.65 494.88 755.74 497.84 756.66 500.57 745.22 507.21 737.32 502.63 750.65 494.88"/><polygon class="cls-3" points="580.02 341.37 576.92 345.71 573.83 351.91 553.56 398.77 537.87 389.65 536.49 383.87 515.75 297.27 510.53 294.24 510.53 291.35 551.66 315.25 551.66 318.13 545.38 314.48 559.95 374.02 569.52 350.92 569.74 350.39 571.2 345.37 571.74 340.74 571.21 335.64 569.62 331.3 566.97 327.71 563.26 324.87 563.26 321.98 586.31 335.37 586.31 338.26 584.89 338.54 583.15 338.89 580.02 341.37"/><polygon class="cls-46" points="580.02 341.37 583.15 338.89 584.89 338.54 580.02 341.37"/><polygon class="cls-13" points="573.83 351.91 576.92 345.71 589.91 338.16 589.91 338.64 587.17 344.17 573.83 351.91"/><polygon class="cls-35" points="587.17 344.17 589.91 338.64 589.91 340.36 597.47 344.74 597.47 412.61 591.71 415.95 582.85 410.8 582.85 354.13 587.17 344.17"/><polygon class="cls-13" points="587.17 344.17 582.85 354.13 566.89 391.02 557.85 396.28 553.56 398.77 573.83 351.91 587.17 344.17"/><polygon class="cls-35" points="566.89 391.02 582.85 354.13 582.85 410.8 557.85 396.28 566.89 391.02"/><polygon class="cls-35" points="537.87 389.65 553.56 398.77 557.85 396.28 582.85 410.8 582.85 514.24 489.1 459.77 489.1 356.34 536.49 383.87 537.87 389.65"/><polygon class="cls-3" points="597.47 344.74 589.91 340.36 589.91 338.64 589.91 338.16 589.91 337.47 633.82 362.97 633.82 365.86 625.93 361.27 625.93 437.92 633.82 442.5 633.82 445.39 589.91 419.88 589.91 417 597.47 421.38 597.47 412.61 597.47 344.74"/><polygon class="cls-35" points="589.91 419.88 633.82 445.39 638.11 442.9 639.91 443.95 639.91 452.31 648.37 448.86 649.05 449.26 652.75 454.52 656.97 459.4 661.33 463.4 665.84 466.51 672.08 469.37 676.61 470.52 676.61 568.7 582.85 514.24 582.85 410.8 591.71 415.95 589.91 417 589.91 419.88"/><polygon class="cls-1" points="597.47 421.38 589.91 417 591.71 415.95 597.47 412.61 597.47 421.38"/><polygon class="cls-11" points="633.82 445.39 633.82 442.5 639.91 438.96 639.91 441.85 638.11 442.9 633.82 445.39"/><polygon class="cls-3" points="686.52 428 690.46 434.86 692.98 441.16 694.33 447.32 694.78 453.76 694.51 458.44 693.72 462.38 692.4 465.59 690.54 468.08 688.23 469.86 686.04 470.75 685.54 470.96 679.02 471.12 676.61 470.52 672.08 469.37 665.84 466.51 661.33 463.4 656.97 459.4 652.75 454.52 649.05 449.26 648.68 448.74 648.37 448.86 639.91 452.31 639.91 443.95 639.91 441.85 639.91 438.96 639.91 430.55 639.91 417.58 642.4 419.03 642.4 419.4 643.04 427.64 644.95 435.3 648.23 442.76 652.95 450.45 658.43 457.12 664.03 461.53 668.65 463.54 672.29 463.65 674.65 461.94 675.14 459.78 675.43 458.5 675.11 455.88 674.89 455.22 674.14 453.05 672.22 449.73 670.66 447.03 662.73 436.92 661.34 435.15 660.52 434.11 656.51 428.58 652.51 423.06 652.12 422.37 648.51 415.85 648.35 415.57 647.14 413.38 646.78 412.74 644.78 407.85 643.35 403.14 642.49 398.62 642.2 394.27 642.65 388.64 643.99 384.04 646.23 380.47 649.37 377.93 653.17 376.55 657.42 376.46 662.11 377.65 667.25 380.12 674.9 385.67 679.37 390.2 684.6 396.83 693.56 393.5 693.56 423.98 691.17 422.6 690.65 416.56 689.57 412.12 689.23 410.69 686.9 405 683.67 399.49 680.26 394.86 679.97 394.46 676.23 390.24 673.37 387.64 672.44 386.8 670.77 385.65 668.61 384.17 668.12 383.98 665.3 382.88 664.78 382.95 662.69 383.25 660.99 385.15 660.43 388.45 660.79 391.45 661.86 394.32 667.39 402.33 679.41 418.02 686.52 428"/><polygon class="cls-47" points="690.65 416.56 691.17 422.6 693.5 423.95 686.52 428 679.41 418.02 689.57 412.12 690.65 416.56"/><polygon class="cls-39" points="686.9 405 689.23 410.69 689.57 412.12 679.41 418.02 667.39 402.33 680.26 394.86 683.67 399.49 686.9 405"/><polygon class="cls-47" points="676.23 390.24 679.97 394.46 680.26 394.86 667.39 402.33 661.86 394.32 673.37 387.64 676.23 390.24"/><polygon class="cls-13" points="660.99 385.15 662.69 383.25 664.78 382.95 660.99 385.15"/><polygon class="cls-48" points="660.43 388.45 660.99 385.15 664.78 382.95 665.3 382.88 668.12 383.98 660.43 388.45"/><polygon class="cls-49" points="660.79 391.45 660.43 388.45 668.12 383.98 668.61 384.17 670.77 385.65 660.79 391.45"/><polygon class="cls-32" points="661.86 394.32 660.79 391.45 670.77 385.65 672.44 386.8 673.37 387.64 661.86 394.32"/><polygon class="cls-35" points="679.02 471.12 685.54 470.96 686.04 470.75 703.11 480.66 701.31 481.71 701.31 484.6 745.22 510.1 749.5 507.61 765.87 517.12 766.68 518.37 770.37 522.69 770.37 623.17 676.61 568.7 676.61 470.52 679.02 471.12"/><polygon class="cls-1" points="642.4 419.03 639.91 417.58 647.14 413.38 648.35 415.57 642.4 419.03"/><polygon class="cls-11" points="642.4 419.4 642.4 419.03 648.35 415.57 648.51 415.85 642.4 419.4"/><polygon class="cls-50" points="643.04 427.64 642.4 419.4 648.51 415.85 652.12 422.37 643.04 427.64"/><polygon class="cls-51" points="644.95 435.3 643.04 427.64 652.12 422.37 652.51 423.06 656.51 428.58 644.95 435.3"/><polygon class="cls-52" points="648.23 442.76 644.95 435.3 656.51 428.58 660.52 434.11 661.34 435.15 648.23 442.76"/><polygon class="cls-38" points="652.95 450.45 648.23 442.76 661.34 435.15 662.73 436.92 666.28 442.7 652.95 450.45"/><polygon class="cls-35" points="666.28 442.7 662.73 436.92 670.66 447.03 672.22 449.73 671.77 449.37 666.28 442.7"/><polygon class="cls-4" points="666.28 442.7 671.77 449.37 658.43 457.12 652.95 450.45 666.28 442.7"/><polygon class="cls-4" points="671.77 449.37 672.22 449.73 674.14 453.05 674.89 455.22 664.03 461.53 658.43 457.12 671.77 449.37"/><polygon class="cls-53" points="668.65 463.54 664.03 461.53 674.89 455.22 675.11 455.88 675.43 458.5 675.14 459.78 668.65 463.54"/><polygon class="cls-40" points="672.29 463.65 668.65 463.54 675.14 459.78 674.65 461.94 672.29 463.65"/><polygon class="cls-3" points="745.22 510.1 701.31 484.6 701.31 481.71 708.86 486.1 708.86 477.32 708.86 409.45 706.89 408.31 701.31 405.07 701.31 402.18 745.22 427.68 745.22 430.57 737.32 425.99 737.32 502.63 745.22 507.21 745.22 510.1"/><polygon class="cls-1" points="708.86 486.1 701.31 481.71 703.11 480.66 708.86 477.32 708.86 486.1"/><polygon class="cls-11" points="745.22 510.1 745.22 507.21 756.66 500.57 756.76 500.88 757.72 502.84 749.5 507.61 745.22 510.1"/><path class="cls-3" d="M753.6,491.5l-1.9-9.68-.64-10,.62-9,1.86-7.31,3.1-5.6L761,446l5.38-2,6.21-.08,7,1.89,7.89,3.84,8.06,5.42,7.15,6.37,6.26,7.32,5.36,8.28,4.29,8.93,3.07,9.3,1.84,9.65.62,10-.61,8.85L821.74,531l-3,5.66-4.22,4.07-4.6,2-.67.29-6.16.21L796,541.38l-7.93-3.85-8-5.37L773,525.77l-2.63-3.08-3.68-4.32-.81-1.25L761.2,510l-3.48-7.11-1-2-.1-.31-.92-2.73ZM793,464.74,792.7,461l-.94-3.06-1.56-2.42-.71-.57L788,453.77l-1.28-.46-1.11-.4-1.7.59-1,2-.34,3.49v63.73l.31,3.77.93,3,1.68,2.33,2.54,1.93,2.2.76,1.56-.63.18-.39.76-1.64.09-.88.23-2.54V464.74Z"/><polygon class="cls-29" points="795.57 455.03 787.51 449.61 800.85 441.87 808.9 447.29 795.57 455.03"/><polygon class="cls-35" points="808.9 447.29 800.85 441.87 792.95 438.02 785.9 436.14 779.69 436.22 774.31 438.26 770.37 440.55 770.37 416.3 864.12 470.76 864.12 481.27 842.07 468.46 830.52 475.17 827.67 469.25 822.31 460.98 816.05 453.65 808.9 447.29"/><polygon class="cls-27" points="808.9 447.29 816.05 453.65 802.72 461.4 795.57 455.03 808.9 447.29"/><polygon class="cls-27" points="816.05 453.65 822.31 460.98 808.98 468.72 802.72 461.4 816.05 453.65"/><polygon class="cls-14" points="822.31 460.98 827.67 469.25 814.34 477 808.98 468.72 822.31 460.98"/><polygon class="cls-34" points="827.67 469.25 830.52 475.17 828.74 476.2 828.74 479.09 829.57 479.58 818.63 485.93 814.34 477 827.67 469.25"/><polygon class="cls-51" points="774.31 438.26 779.69 436.22 766.36 443.96 760.98 446 770.37 440.55 774.31 438.26"/><polygon class="cls-54" points="779.69 436.22 785.9 436.14 772.57 443.88 766.36 443.96 779.69 436.22"/><polygon class="cls-55" points="785.9 436.14 792.95 438.02 779.62 445.77 772.57 443.88 785.9 436.14"/><polygon class="cls-38" points="792.95 438.02 800.85 441.87 787.51 449.61 779.62 445.77 792.95 438.02"/><polygon class="cls-1" points="842.07 468.46 864.12 481.27 879.88 490.43 866.55 498.17 828.74 476.2 830.52 475.17 842.07 468.46"/><polygon class="cls-35" points="879.88 490.43 864.12 481.27 864.12 470.76 938.34 513.88 938.34 617.32 900.56 595.37 909.61 590.11 909.61 533.69 910.26 524.35 911.1 521.78 919.99 516.61 919.99 513.73 893.87 498.55 885.49 503.42 879.88 490.43"/><polygon class="cls-13" points="911.1 521.78 910.26 524.35 896.92 532.1 898.87 526.13 903.33 523.54 904.22 523.53 906.66 524.36 911.1 521.78"/><polygon class="cls-56" points="910.26 524.35 909.61 533.69 896.28 541.44 896.92 532.1 910.26 524.35"/><polygon class="cls-11" points="909.61 533.69 909.61 590.11 900.56 595.37 896.28 597.86 896.28 541.44 909.61 533.69"/><polygon class="cls-57" points="879.88 490.43 885.49 503.42 880.54 506.3 880.54 509.18 882.73 510.46 885.31 512.33 887.54 514.74 889.43 517.7 890.97 521.2 892.16 525.27 893.01 529.92 893.69 540.98 893.69 561.14 866.55 498.17 879.88 490.43"/><polygon class="cls-1" points="893.87 498.55 919.99 513.73 906.66 521.47 880.54 506.3 885.49 503.42 893.87 498.55"/><polygon class="cls-11" points="919.99 513.73 919.99 516.61 911.1 521.78 906.66 524.36 906.66 521.47 919.99 513.73"/><polygon class="cls-58" points="821.7 495.23 818.63 485.93 829.57 479.58 833.1 481.63 835.03 487.48 821.7 495.23"/><polygon class="cls-35" points="835.03 487.48 833.1 481.63 834.83 482.63 839.12 492.68 839.12 540.99 838.53 547.96 837.73 550.51 830.54 554.69 809.91 542.7 814.51 540.74 827.84 532.99 832.06 528.93 835.08 523.27 836.89 516.01 837.49 507.16 836.88 497.14 835.03 487.48"/><polygon class="cls-59" points="835.03 487.48 836.88 497.14 823.54 504.88 821.7 495.23 835.03 487.48"/><polygon class="cls-60" points="836.88 497.14 837.49 507.16 824.16 514.9 823.54 504.88 836.88 497.14"/><polygon class="cls-56" points="837.49 507.16 836.89 516.01 823.55 523.76 824.16 514.9 837.49 507.16"/><polygon class="cls-13" points="836.89 516.01 835.08 523.27 821.75 531.01 823.55 523.76 836.89 516.01"/><polygon class="cls-13" points="835.08 523.27 832.06 528.93 818.73 536.67 821.75 531.01 835.08 523.27"/><polygon class="cls-13" points="832.06 528.93 827.84 532.99 814.51 540.74 818.73 536.67 832.06 528.93"/><polygon class="cls-35" points="803.08 543.2 809.24 542.99 809.91 542.7 830.54 554.69 828.74 555.73 828.74 558.62 853.98 573.28 858.27 570.79 864.12 574.2 864.12 677.63 770.37 623.17 770.37 522.69 772.99 525.77 780.13 532.16 788.1 537.53 796.03 541.38 803.08 543.2"/><polygon class="cls-3" points="906.66 524.36 904.22 523.53 903.33 523.54 902.12 523.55 900.33 524.42 898.87 526.13 896.92 532.1 896.28 541.44 896.28 597.86 880.54 588.71 877.67 582.07 864.12 550.63 855.13 529.77 841.8 498.85 841.8 538.12 842.56 549.54 843.51 554.41 844.84 558.73 846.56 562.48 848.65 565.68 851.12 568.32 853.98 570.4 853.98 573.28 828.74 558.62 828.74 555.73 831.36 556.69 833.57 556.66 835.37 555.64 836.75 553.63 836.78 553.55 837.73 550.51 838.53 547.96 839.12 540.99 839.12 492.68 834.83 482.63 833.1 481.63 829.57 479.58 828.74 479.09 828.74 476.2 866.55 498.17 893.69 561.14 893.69 540.98 893.01 529.92 892.16 525.27 890.97 521.2 889.43 517.7 887.54 514.74 885.31 512.33 882.73 510.46 880.54 509.18 880.54 506.3 906.66 521.47 906.66 524.36"/><polygon class="cls-13" points="900.33 524.42 902.12 523.55 903.33 523.54 898.87 526.13 900.33 524.42"/><polygon class="cls-35" points="880.54 588.71 896.28 597.86 900.56 595.37 938.34 617.32 938.34 720.75 864.12 677.63 864.12 574.2 877.67 582.07 880.54 588.71"/><polygon class="cls-11" points="841.8 538.12 841.8 498.85 855.13 529.77 855.13 530.38 841.8 538.12"/><polygon class="cls-35" points="855.13 530.38 855.13 529.77 864.12 550.63 864.12 560.22 861.98 557.94 859.89 554.74 858.17 550.98 856.84 546.67 855.89 541.8 855.13 530.38"/><polygon class="cls-61" points="855.13 530.38 855.89 541.8 842.56 549.54 841.8 538.12 855.13 530.38"/><polygon class="cls-62" points="855.89 541.8 856.84 546.67 843.51 554.41 842.56 549.54 855.89 541.8"/><polygon class="cls-63" points="856.84 546.67 858.17 550.98 844.84 558.73 843.51 554.41 856.84 546.67"/><polygon class="cls-64" points="858.17 550.98 859.89 554.74 846.56 562.48 844.84 558.73 858.17 550.98"/><polygon class="cls-14" points="859.89 554.74 861.98 557.94 848.65 565.68 846.56 562.48 859.89 554.74"/><polygon class="cls-27" points="861.98 557.94 864.12 560.22 864.46 560.57 851.12 568.32 848.65 565.68 861.98 557.94"/><polygon class="cls-35" points="864.46 560.57 864.12 560.22 864.12 550.63 877.67 582.07 864.12 574.2 864.12 567.39 867.31 565.54 867.31 562.65 864.46 560.57"/><polygon class="cls-39" points="864.46 560.57 867.31 562.65 853.98 570.4 851.12 568.32 864.46 560.57"/><polygon class="cls-11" points="867.31 562.65 867.31 565.54 864.12 567.39 858.27 570.79 853.98 573.28 853.98 570.4 867.31 562.65"/><polygon class="cls-5" points="831.36 556.69 828.74 555.73 830.54 554.69 837.73 550.51 836.78 553.55 831.36 556.69"/><polygon class="cls-54" points="833.57 556.66 831.36 556.69 836.78 553.55 836.75 553.63 835.37 555.64 833.57 556.66"/><polygon class="cls-65" points="39.81 513.86 39.81 617.29 39.81 720.73 39.81 824.16 133.57 878.63 227.32 933.09 321.08 987.56 414.83 1042.02 489.06 1085.14 489.06 1130.11 0.75 846.44 0.75 284.29 39.81 306.99 39.81 410.42 39.81 513.86"/><polygon class="cls-66" points="39.81 306.99 0.75 284.29 489.1 0.65 977.41 284.32 938.34 307.01 864.12 263.89 770.37 209.43 676.61 154.96 582.85 100.5 489.1 46.03 395.33 100.49 301.57 154.95 207.81 209.41 114.04 263.87 39.81 306.99"/><polygon class="cls-67" points="938.34 307.01 977.41 284.32 977.41 846.47 489.06 1130.11 489.06 1085.14 563.29 1042.03 657.05 987.57 750.82 933.11 844.58 878.65 938.34 824.19 938.34 720.75 938.34 617.32 938.34 513.88 938.34 410.44 938.34 307.01"/><polygon class="cls-2" points="395.33 100.49 489.1 46.03 489.1 149.47 395.33 203.93 395.33 100.49"/><polygon class="cls-35" points="864.12 263.89 938.34 307.01 938.34 410.44 864.12 367.33 864.12 263.89"/><polygon class="cls-66" points="489.06 1085.14 414.83 1042.02 489.07 998.91 563.29 1042.03 489.06 1085.14"/><polygon class="cls-2" points="39.81 410.42 39.81 306.99 114.04 263.87 114.04 367.31 39.81 410.42"/><polygon class="cls-35" points="489.1 149.47 489.1 46.03 582.85 100.5 582.85 203.93 489.1 149.47"/><polygon class="cls-2" points="301.57 154.95 395.33 100.49 395.33 203.93 301.57 258.39 301.57 154.95"/><polygon class="cls-2" points="207.81 209.41 301.57 154.95 301.57 258.39 207.81 312.85 207.81 209.41"/><polygon class="cls-2" points="114.04 263.87 207.81 209.41 207.81 312.85 114.04 367.31 114.04 263.87"/><polygon class="cls-35" points="582.85 203.93 582.85 100.5 676.61 154.96 676.61 258.4 582.85 203.93"/><polygon class="cls-35" points="676.61 258.4 676.61 154.96 770.37 209.43 770.37 312.86 676.61 258.4"/><polygon class="cls-35" points="770.37 312.86 770.37 209.43 864.12 263.89 864.12 367.33 770.37 312.86"/><polygon class="cls-66" points="227.32 933.09 133.57 878.63 179.62 851.88 179.62 860.91 167.92 860.91 167.92 862.97 167.92 878.31 247.95 878.32 257.62 877.72 266.18 875.93 272.79 873.27 301.56 889.98 227.32 933.09"/><polygon class="cls-68" points="272.79 873.27 266.18 875.93 266.18 860.58 273.61 857.59 273.61 872.94 272.79 873.27"/><polygon class="cls-66" points="272.79 873.27 273.61 872.94 279.93 868.76 284.96 863.9 288.56 858.89 290.72 853.72 291.44 848.41 291.44 833.06 290.75 828.04 288.67 823.12 285.2 818.28 280.35 813.54 273.95 809.44 265.85 806.5 259.66 805.39 301.56 781.05 341.34 804.16 301.19 804.16 301.19 806.22 301.19 821.57 312.74 821.57 312.73 860.91 301.18 860.91 301.18 862.97 301.18 878.32 321.63 878.32 301.56 889.98 272.79 873.27"/><polygon class="cls-69" points="291.44 848.41 290.72 853.72 290.72 838.38 291.44 833.06 291.44 848.41"/><polygon class="cls-70" points="290.72 853.72 288.56 858.89 288.56 843.54 290.72 838.38 290.72 853.72"/><polygon class="cls-71" points="288.56 858.89 284.96 863.9 284.96 848.55 288.56 843.54 288.56 858.89"/><polygon class="cls-72" points="284.96 863.9 279.93 868.76 279.93 853.41 284.96 848.55 284.96 863.9"/><polygon class="cls-73" points="279.93 868.76 273.61 872.94 273.61 857.59 279.93 853.41 279.93 868.76"/><polygon class="cls-74" points="266.18 875.93 257.62 877.72 257.62 862.37 266.18 860.58 266.18 875.93"/><polygon class="cls-75" points="257.62 877.72 247.95 878.32 247.95 862.97 257.62 862.37 257.62 877.72"/><rect class="cls-75" x="167.92" y="862.97" width="80.03" height="15.35"/><polygon class="cls-75" points="321.63 878.32 301.18 878.32 301.18 862.97 402.13 862.97 402.13 878.32 321.63 878.32"/><polygon class="cls-66" points="321.63 878.32 402.13 878.32 402.13 862.97 402.13 841.22 398.88 841.22 396.94 845.56 393.9 849.41 389.77 852.77 384.54 855.65 380.91 857.02 380.91 847.18 380.92 843.88 394.91 835.75 395.49 837.97 398.88 837.97 398.88 837.59 417 848.12 417 865.39 417 880.73 430.59 874.55 436.9 876.99 443.43 878.73 450.19 879.77 457.17 880.12 466.84 879.58 470.27 879.06 489.07 889.98 395.31 944.44 301.56 889.98 321.63 878.32"/><rect class="cls-75" x="301.18" y="806.22" width="11.55" height="15.35"/><polygon class="cls-75" points="398.88 837.59 398.88 837.97 395.49 837.97 395.49 822.62 398.88 822.62 398.88 833.45 398.88 837.59"/><polygon class="cls-66" points="398.88 837.59 398.88 833.45 420.95 820.63 420.55 823.02 420.55 838.37 421 841.35 422.33 844.22 424.55 846.99 427.65 849.65 436.52 854.64 448.94 859.2 457.04 861.79 454.38 861.97 445.7 861.14 437.2 858.65 429.9 855.12 424.82 851.15 421.85 846.49 420.86 840.87 420.86 840.61 417 840.61 417 848.12 398.88 837.59"/><polygon class="cls-76" points="395.49 837.97 394.91 835.75 394.77 835.2 394.7 834.93 394.7 819.58 395.49 822.62 395.49 837.97"/><polygon class="cls-66" points="394.7 834.93 394.77 835.2 380.92 827.15 380.92 824.42 386.01 826.66 389.96 829.27 392.86 832.03 394.7 834.93"/><polygon class="cls-66" points="394.77 835.2 394.91 835.75 380.92 843.88 380.92 827.15 394.77 835.2"/><polygon class="cls-77" points="394.7 834.93 392.86 832.03 392.86 816.68 394.7 819.58 394.7 834.93"/><polygon class="cls-72" points="392.86 832.03 389.96 829.27 389.96 813.92 392.86 816.68 392.86 832.03"/><polygon class="cls-78" points="389.96 829.27 386.01 826.66 386.01 811.31 389.96 813.92 389.96 829.27"/><polygon class="cls-79" points="386.01 826.66 380.95 824.43 380.95 809.08 386.01 811.31 386.01 826.66"/><polygon class="cls-80" points="380.95 824.43 380.92 817.89 377.67 817.89 377.33 821.35 376.64 823.33 374.7 822.84 374.7 807.49 380.95 809.08 380.95 824.43"/><polygon class="cls-66" points="374.7 822.84 376.64 823.33 376.31 824.27 376.21 824.42 373.15 822.64 374.7 822.84"/><polygon class="cls-81" points="374.7 822.84 373.15 822.64 367.26 821.89 367.26 806.54 374.7 807.49 374.7 822.84"/><polygon class="cls-66" points="367.26 821.89 373.15 822.64 376.21 824.42 374.61 826.67 372.23 828.52 366.44 830.91 359.93 831.7 356.83 831.7 356.83 821.57 358.64 821.57 367.26 821.89"/><polygon class="cls-75" points="367.26 821.89 358.64 821.57 358.64 806.22 367.26 806.54 367.26 821.89"/><rect class="cls-75" x="356.83" y="806.22" width="1.81" height="15.35"/><polygon class="cls-82" points="356.83 821.57 356.83 831.7 359.93 831.7 366.44 830.91 372.23 828.52 374.61 826.67 376.21 824.42 376.31 824.27 376.64 823.33 377.33 821.35 377.67 817.89 380.92 817.89 380.92 824.42 380.92 827.15 380.92 843.88 380.91 847.18 377.67 847.18 376.37 841.53 374.76 839.24 372.5 837.29 366.77 834.65 363.49 833.98 359.92 833.76 356.83 833.76 356.83 849.11 356.83 857.88 356.83 860.91 364.62 860.58 371.83 859.6 376.72 858.39 377.67 858.15 378.47 857.95 380.91 857.02 384.54 855.65 389.77 852.77 393.9 849.41 396.94 845.56 398.88 841.22 402.13 841.22 402.13 862.97 301.18 862.97 301.18 860.91 312.73 860.91 312.74 821.57 312.74 806.22 301.19 806.22 301.19 804.16 341.34 804.16 398.89 804.16 398.88 822.62 395.49 822.62 394.7 819.58 392.86 816.68 389.96 813.92 386.01 811.31 380.95 809.08 374.7 807.49 367.26 806.54 358.64 806.22 356.83 806.22 356.83 821.57"/><polygon class="cls-66" points="356.83 857.88 356.83 849.11 359.92 849.11 363.49 849.33 366.77 849.99 368.79 850.93 356.83 857.88"/><polygon class="cls-83" points="368.79 850.93 366.77 849.99 366.77 834.65 372.5 837.29 372.5 852.64 368.79 850.93"/><polygon class="cls-66" points="368.79 850.93 372.5 852.64 374.76 854.58 376.37 856.88 376.72 858.39 371.83 859.6 364.62 860.58 356.83 860.91 356.83 857.88 368.79 850.93"/><polygon class="cls-84" points="376.72 858.39 376.37 856.88 376.37 841.53 377.67 847.18 377.67 858.15 376.72 858.39"/><polygon class="cls-85" points="376.37 856.88 374.76 854.58 374.76 839.24 376.37 841.53 376.37 856.88"/><polygon class="cls-86" points="374.76 854.58 372.5 852.64 372.5 837.29 374.76 839.24 374.76 854.58"/><polygon class="cls-74" points="366.77 849.99 363.49 849.33 363.49 833.98 366.77 834.65 366.77 849.99"/><polygon class="cls-75" points="363.49 849.33 359.92 849.11 359.92 833.76 363.49 833.98 363.49 849.33"/><rect class="cls-75" x="356.83" y="833.76" width="3.09" height="15.35"/><polygon class="cls-87" points="470.27 879.06 466.84 879.58 466.84 864.23 477.59 862.6 477.59 877.95 470.27 879.06"/><polygon class="cls-66" points="470.27 879.06 477.59 877.95 487.7 875.13 491.87 873.23 495.45 871 498.33 868.46 500.38 865.62 501.61 862.47 502.02 859.03 502.02 843.68 501.32 839.27 500.13 837.1 500.13 822.93 500.14 801.18 486.24 807.28 478.15 804.71 471.22 803.33 459.37 802.54 451.48 802.9 489.08 781.06 528.86 804.16 512.14 804.16 512.14 806.23 512.14 821.57 523.84 821.57 523.84 860.91 512.14 860.91 512.14 862.98 512.14 876.59 489.07 889.98 470.27 879.06"/><polygon class="cls-88" points="502.02 859.03 501.61 862.47 501.61 847.12 502.02 843.68 502.02 859.03"/><polygon class="cls-89" points="501.61 862.47 500.38 865.62 500.38 850.27 501.61 847.12 501.61 862.47"/><polygon class="cls-71" points="500.38 865.62 498.33 868.46 498.33 853.11 500.38 850.27 500.38 865.62"/><polygon class="cls-86" points="498.33 868.46 495.45 871 495.45 855.65 498.33 853.11 498.33 868.46"/><polygon class="cls-90" points="495.45 871 491.87 873.23 491.87 857.88 495.45 855.65 495.45 871"/><polygon class="cls-91" points="491.87 873.23 487.7 875.13 487.7 859.78 491.87 857.88 491.87 873.23"/><polygon class="cls-92" points="487.7 875.13 477.59 877.95 477.59 862.6 487.7 859.78 487.7 875.13"/><polygon class="cls-75" points="466.84 879.58 457.17 880.12 457.17 864.77 466.84 864.23 466.84 879.58"/><polygon class="cls-75" points="457.17 880.12 450.19 879.77 450.19 864.42 457.17 864.77 457.17 880.12"/><polygon class="cls-87" points="450.19 879.77 443.43 878.73 443.43 863.38 450.19 864.42 450.19 879.77"/><polygon class="cls-92" points="443.43 878.73 436.9 876.99 436.9 861.64 443.43 863.38 443.43 878.73"/><polygon class="cls-68" points="436.9 876.99 430.59 874.55 430.59 859.2 436.9 861.64 436.9 876.99"/><polygon class="cls-91" points="430.59 874.55 417 880.73 417 865.39 430.59 859.2 430.59 874.55"/><polygon class="cls-93" points="457.04 861.79 448.94 859.2 448.94 843.85 464.65 848.88 464.65 860.7 461.54 861.49 457.04 861.79"/><polygon class="cls-94" points="448.94 859.2 436.52 854.64 436.52 839.29 448.94 843.85 448.94 859.2"/><polygon class="cls-95" points="436.52 854.64 427.65 849.65 427.65 834.3 436.52 839.29 436.52 854.64"/><polygon class="cls-86" points="427.65 849.65 424.55 846.99 424.55 831.64 427.65 834.3 427.65 849.65"/><polygon class="cls-96" points="424.55 846.99 422.33 844.22 422.33 828.88 424.55 831.64 424.55 846.99"/><polygon class="cls-97" points="422.33 844.22 421 841.35 421 826 422.33 828.88 422.33 844.22"/><polygon class="cls-69" points="421 841.35 420.55 838.37 420.55 823.02 421 826 421 841.35"/><rect class="cls-75" x="512.14" y="806.23" width="11.7" height="15.35"/><path class="cls-82" d="M265.85,806.5l8.1,2.94,6.39,4.1,4.86,4.74,3.47,4.84,2.08,4.92.69,5-.72,5.32-2.16,5.16-3.6,5-5,4.86-6.32,4.18-7.44,3-8.55,1.79L248,863h-80v-2.06h11.7V806.22h-11.7v-2.07h76.64l11.49.58,3.61.65Zm-42.13,19.77v34.64h6.19l6.28-.41,3.88-1.21,2-2.5.2-1.25.47-3v-38l-.41-4.27-1.25-2.48-3.24-1.19-6.42-.39h-7.7v20Z"/><polygon class="cls-66" points="244.56 804.16 167.92 804.15 167.92 806.22 167.92 812.35 114.04 781.05 207.81 726.59 301.56 781.05 259.66 805.39 256.05 804.74 244.56 804.16"/><polygon class="cls-75" points="167.92 806.22 179.62 806.22 179.62 821.56 167.92 821.56 167.92 812.35 167.92 806.22"/><polygon class="cls-66" points="167.92 821.56 179.62 821.56 179.62 851.88 133.57 878.63 39.81 824.16 114.04 781.05 167.92 812.35 167.92 821.56"/><polygon class="cls-75" points="377.67 847.18 380.91 847.18 380.91 857.02 378.47 857.95 377.67 858.15 377.67 847.18"/><polygon class="cls-82" points="501.32 839.27 502.02 843.68 501.61 847.12 500.38 850.27 498.33 853.11 495.45 855.65 491.87 857.88 487.7 859.78 477.59 862.6 466.84 864.23 457.17 864.77 450.19 864.42 443.43 863.38 436.9 861.64 430.59 859.2 417 865.39 417 848.12 417 840.61 420.86 840.61 420.86 840.87 421.85 846.49 424.82 851.15 429.9 855.12 437.2 858.65 445.7 861.14 454.38 861.97 457.04 861.79 461.54 861.49 464.65 860.7 467.18 860.06 470.05 858.33 470.83 857.86 471.55 856.22 472.05 855.08 471.55 853.34 470.05 851.73 464.65 848.88 448.94 843.85 436.52 839.29 427.65 834.3 424.55 831.64 422.33 828.88 421 826 420.55 823.02 420.95 820.63 421.25 818.82 423.33 814.98 426.8 811.5 431.65 808.39 437.55 805.83 444.13 804 451.4 802.9 459.37 802.54 471.22 803.33 478.15 804.71 486.24 807.28 500.14 801.18 500.13 822.93 496.44 822.93 495.62 818.84 493.42 815.25 489.81 812.15 484.81 809.56 479.08 807.5 473.28 806.04 467.41 805.16 461.48 804.86 456.35 805.31 452.31 806.66 449.67 808.72 448.79 811.31 449.35 813.31 449.67 813.61 451.02 814.91 452.31 815.42 456.35 817.04 459.59 818.33 461.48 818.96 465.88 820.43 478.21 824.54 489.22 828.72 493.75 831.14 495.33 831.98 495.62 832.24 496.44 832.96 499.23 835.43 500.13 837.1 501.32 839.27"/><polygon class="cls-98" points="495.62 818.84 496.44 822.93 496.44 832.96 495.62 832.24 495.62 818.84"/><polygon class="cls-99" points="493.42 815.25 495.62 818.84 495.62 832.24 495.33 831.98 493.75 831.14 493.42 830.6 493.42 815.25"/><polygon class="cls-66" points="493.42 830.6 493.75 831.14 489.22 828.72 478.21 824.54 465.88 820.43 467.41 820.5 473.28 821.38 479.08 822.85 484.81 824.9 489.81 827.5 493.42 830.6"/><polygon class="cls-86" points="493.42 830.6 489.81 827.5 489.81 812.15 493.42 815.25 493.42 830.6"/><polygon class="cls-100" points="489.81 827.5 484.81 824.9 484.81 809.56 489.81 812.15 489.81 827.5"/><polygon class="cls-94" points="484.81 824.9 479.08 822.85 479.08 807.5 484.81 809.56 484.81 824.9"/><polygon class="cls-80" points="479.08 822.85 473.28 821.38 473.28 806.04 479.08 807.5 479.08 822.85"/><polygon class="cls-87" points="473.28 821.38 467.41 820.5 467.41 805.16 473.28 806.04 473.28 821.38"/><polygon class="cls-75" points="467.41 820.5 465.88 820.43 461.48 818.96 461.48 804.86 467.41 805.16 467.41 820.5"/><polygon class="cls-101" points="456.35 805.31 461.48 804.86 461.48 818.96 459.59 818.33 456.35 817.04 456.35 805.31"/><polygon class="cls-93" points="452.31 806.66 456.35 805.31 456.35 817.04 452.31 815.42 452.31 806.66"/><polygon class="cls-102" points="449.67 808.72 452.31 806.66 452.31 815.42 451.02 814.91 449.67 813.61 449.67 808.72"/><polygon class="cls-103" points="448.79 811.31 449.67 808.72 449.67 813.61 449.35 813.31 448.79 811.31"/><polygon class="cls-104" points="471.55 853.34 472.05 855.08 471.55 856.22 471.55 853.34"/><polygon class="cls-105" points="470.05 851.73 471.55 853.34 471.55 856.22 470.83 857.86 470.05 858.33 470.05 851.73"/><polygon class="cls-100" points="464.65 848.88 470.05 851.73 470.05 858.33 467.18 860.06 464.65 860.7 464.65 848.88"/><polygon class="cls-66" points="423.33 814.98 421.25 818.82 420.95 820.63 398.88 833.45 398.88 822.62 398.89 804.16 341.34 804.16 301.56 781.05 395.33 726.59 489.08 781.06 451.48 802.9 444.13 804 437.55 805.83 431.65 808.39 426.8 811.5 423.33 814.98"/><polygon class="cls-75" points="496.44 822.93 500.13 822.93 500.13 837.1 499.23 835.43 496.44 832.96 496.44 822.93"/><polygon class="cls-82" points="512.14 862.98 512.14 860.91 523.84 860.91 523.84 821.57 523.85 806.23 512.14 806.23 512.14 804.16 528.86 804.16 580.17 804.16 580.17 806.23 567.94 806.23 567.94 821.57 567.94 826.87 567.94 844.18 567.94 860.92 580.17 860.92 580.17 862.98 512.14 862.98"/><polygon class="cls-66" points="567.94 826.87 567.94 821.57 580.17 821.57 580.17 806.23 580.17 804.16 528.86 804.16 489.08 781.06 582.85 726.6 676.6 781.06 639.54 802.59 630.28 803.13 623.5 804.19 617.05 805.68 611.08 807.65 605.72 810.18 600.98 813.26 596.86 816.88 593.52 820.89 591.14 825.09 589.7 829.48 589.48 831.67 582.84 835.52 567.94 826.87"/><rect class="cls-75" x="567.94" y="806.23" width="12.23" height="15.35"/><polygon class="cls-66" points="567.94 844.18 567.94 826.87 582.84 835.52 567.94 844.18"/><polygon class="cls-66" points="567.94 860.92 567.94 844.18 582.84 835.52 589.23 839.24 589.23 849.42 590.22 855.87 593.18 861.7 598.13 866.92 605.04 871.53 613.53 875.29 623.16 877.98 633.93 879.59 645.85 880.13 655.77 879.76 658.44 879.45 676.59 889.99 582.83 944.45 489.07 889.98 512.14 876.59 512.14 878.32 580.17 878.33 580.17 862.98 580.17 860.92 567.94 860.92"/><polygon class="cls-75" points="580.17 878.33 512.14 878.32 512.14 876.59 512.14 862.98 580.17 862.98 580.17 878.33"/><polygon class="cls-106" points="658.44 879.45 655.77 879.76 655.77 864.41 665.05 863.32 665.05 878.67 658.44 879.45"/><polygon class="cls-66" points="658.44 879.45 665.05 878.67 673.7 876.84 681.72 874.29 692.63 880.67 676.59 889.99 658.44 879.45"/><polygon class="cls-107" points="692.63 880.67 681.72 874.29 681.72 858.95 693.35 865.74 693.35 880.26 693.35 881.09 692.63 880.67"/><polygon class="cls-66" points="693.35 881.09 693.35 880.26 708.67 871.36 708.67 878.33 747.78 878.33 747.78 862.98 747.78 860.92 743.36 860.62 739.53 859.76 736.28 858.35 733.99 856.65 750.15 847.27 788.93 878.33 813.32 878.33 813.32 862.98 813.32 860.49 844.58 878.65 750.82 933.11 676.59 889.99 692.63 880.67 693.35 881.09"/><polygon class="cls-108" points="681.72 874.29 673.7 876.84 673.7 861.5 681.72 858.95 681.72 874.29"/><polygon class="cls-74" points="673.7 876.84 665.05 878.67 665.05 863.32 673.7 861.5 673.7 876.84"/><polygon class="cls-75" points="655.77 879.76 645.85 880.13 645.85 864.78 655.77 864.41 655.77 879.76"/><polygon class="cls-75" points="645.85 880.13 633.93 879.59 633.93 864.24 645.85 864.78 645.85 880.13"/><polygon class="cls-87" points="633.93 879.59 623.16 877.98 623.16 862.63 633.93 864.24 633.93 879.59"/><polygon class="cls-109" points="623.16 877.98 613.53 875.29 613.53 859.94 623.16 862.63 623.16 877.98"/><polygon class="cls-79" points="613.53 875.29 605.04 871.53 605.04 856.18 613.53 859.94 613.53 875.29"/><polygon class="cls-78" points="605.04 871.53 598.13 866.92 598.13 851.58 605.04 856.18 605.04 871.53"/><polygon class="cls-110" points="598.13 866.92 593.18 861.7 593.18 846.36 598.13 851.58 598.13 866.92"/><polygon class="cls-111" points="593.18 861.7 590.22 855.87 590.22 840.52 593.18 846.36 593.18 861.7"/><polygon class="cls-69" points="590.22 855.87 589.23 849.42 589.23 839.24 589.23 834.08 590.22 840.52 590.22 855.87"/><rect class="cls-75" x="788.93" y="862.98" width="24.39" height="15.35"/><polygon class="cls-112" points="788.93 878.33 750.15 847.27 728.91 830.26 728.91 814.91 788.93 862.98 788.93 878.33"/><polygon class="cls-66" points="728.91 830.26 750.15 847.27 733.99 856.65 733.63 856.38 731.56 853.86 730.09 850.77 728.91 842.95 728.91 830.26"/><polygon class="cls-82" points="728.91 830.26 728.91 842.95 730.09 850.77 731.56 853.86 733.63 856.38 733.99 856.65 736.28 858.35 739.53 859.76 743.36 860.62 747.78 860.92 747.78 862.98 708.67 862.98 708.67 860.92 712.73 860.52 716.16 859.58 718.94 858.11 721.09 856.1 723.84 851.32 724.76 846.1 724.76 826.97 724.76 811.63 718.12 806.23 708.68 806.23 708.68 804.17 716.38 804.17 767.27 804.17 788.94 821.53 791.26 823.39 809.17 837.73 809.32 837.85 809.32 823.47 808.27 815.86 806.94 812.89 805.1 810.49 802.71 808.63 799.79 807.3 796.33 806.5 792.33 806.23 788.94 806.23 788.94 804.17 824.35 804.17 829.41 804.17 829.41 806.23 825.64 806.65 822.37 807.54 819.61 808.9 817.35 810.73 814.33 815.79 813.32 822.72 813.32 838.07 813.32 860.49 813.32 862.98 788.93 862.98 728.91 814.91 728.91 830.26"/><polygon class="cls-66" points="813.32 860.49 813.32 838.07 814.33 831.13 817.35 826.08 819.61 824.25 822.37 822.89 825.64 822 829.41 821.58 829.41 806.23 829.41 804.17 824.35 804.17 864.12 781.07 938.34 824.19 844.58 878.65 813.32 860.49"/><polygon class="cls-106" points="829.41 821.58 825.64 822 825.64 806.65 829.41 806.23 829.41 821.58"/><polygon class="cls-92" points="825.64 822 822.37 822.89 822.37 807.54 825.64 806.65 825.64 822"/><polygon class="cls-113" points="822.37 822.89 819.61 824.25 819.61 808.9 822.37 807.54 822.37 822.89"/><polygon class="cls-114" points="819.61 824.25 817.35 826.08 817.35 810.73 819.61 808.9 819.61 824.25"/><polygon class="cls-77" points="817.35 826.08 814.33 831.13 814.33 815.79 817.35 810.73 817.35 826.08"/><polygon class="cls-69" points="814.33 831.13 813.32 838.07 813.32 822.72 814.33 815.79 814.33 831.13"/><polygon class="cls-75" points="747.78 878.33 708.67 878.33 708.67 871.36 708.67 862.98 747.78 862.98 747.78 878.33"/><polygon class="cls-82" points="693.35 865.74 681.72 858.95 673.7 861.5 665.05 863.32 655.77 864.41 645.85 864.78 633.93 864.24 623.16 862.63 613.53 859.94 605.04 856.18 598.13 851.58 593.18 846.36 590.22 840.52 589.23 834.08 589.48 831.67 589.7 829.48 591.14 825.09 593.52 820.89 596.86 816.88 600.98 813.26 605.72 810.18 611.08 807.65 617.05 805.68 623.5 804.19 630.28 803.13 639.54 802.59 644.8 802.28 652.87 802.59 660.37 803.53 667.32 805.09 673.72 807.28 688.67 802.37 688.67 825.35 685.42 825.35 684.83 821.8 683.5 818.86 680.99 816.01 676.85 812.74 671.38 809.6 664.85 807.15 657.68 805.57 650.31 805.04 644.24 805.48 640.53 806.8 638.64 809.33 638 813.42 638 828.77 638 855.71 638.48 858.5 639.93 860.5 642.33 861.7 645.7 862.1 649.57 861.65 652.33 860.28 653.99 858.01 654.54 854.82 654.54 853.9 654.54 838.55 646.91 838.55 646.91 836.58 684.57 836.58 684.83 836.58 685.42 836.58 688.67 836.58 700.44 836.58 700.44 838.55 693.35 838.55 693.35 853.9 693.35 865.74"/><polygon class="cls-66" points="638 855.71 638 828.77 638.64 824.68 640.53 822.14 644.24 820.83 650.31 820.39 657.68 820.92 664.85 822.5 671.38 824.95 676.85 828.09 680.99 831.36 683.5 834.21 684.57 836.58 646.91 836.58 646.91 838.55 646.91 853.9 654.54 853.9 654.54 854.82 653.99 858.01 652.33 860.28 649.57 861.65 645.7 862.1 642.33 861.7 639.93 860.5 638.48 858.5 638 855.71"/><polygon class="cls-97" points="684.57 836.58 683.5 834.21 683.5 818.86 684.83 821.8 684.83 836.58 684.57 836.58"/><polygon class="cls-115" points="683.5 834.21 680.99 831.36 680.99 816.01 683.5 818.86 683.5 834.21"/><polygon class="cls-114" points="680.99 831.36 676.85 828.09 676.85 812.74 680.99 816.01 680.99 831.36"/><polygon class="cls-116" points="676.85 828.09 671.38 824.95 671.38 809.6 676.85 812.74 676.85 828.09"/><polygon class="cls-94" points="671.38 824.95 664.85 822.5 664.85 807.15 671.38 809.6 671.38 824.95"/><polygon class="cls-117" points="664.85 822.5 657.68 820.92 657.68 805.57 664.85 807.15 664.85 822.5"/><polygon class="cls-101" points="657.68 820.92 650.31 820.39 650.31 805.04 657.68 805.57 657.68 820.92"/><polygon class="cls-75" points="650.31 820.39 644.24 820.83 644.24 805.48 650.31 805.04 650.31 820.39"/><polygon class="cls-118" points="644.24 820.83 640.53 822.14 640.53 806.8 644.24 805.48 644.24 820.83"/><polygon class="cls-119" points="640.53 822.14 638.64 824.68 638.64 809.33 640.53 806.8 640.53 822.14"/><polygon class="cls-120" points="638.64 824.68 638 828.77 638 813.42 638.64 809.33 638.64 824.68"/><rect class="cls-75" x="646.91" y="838.55" width="7.63" height="15.35"/><rect class="cls-75" x="693.35" y="838.55" width="7.1" height="15.35"/><polygon class="cls-66" points="693.35 853.9 700.44 853.9 700.44 838.55 700.44 836.58 688.67 836.58 688.67 825.35 688.67 802.37 673.72 807.28 667.32 805.09 660.37 803.53 652.87 802.59 644.8 802.28 639.54 802.59 676.6 781.06 716.38 804.17 708.68 804.17 708.68 806.23 708.68 821.58 718.12 821.58 724.76 826.97 724.76 846.1 723.84 851.32 721.09 856.1 718.94 858.11 716.16 859.58 712.73 860.52 708.67 860.92 708.67 862.98 708.67 871.36 693.35 880.26 693.35 865.74 693.35 853.9"/><polygon class="cls-112" points="724.76 826.97 718.12 821.58 718.12 806.23 724.76 811.63 724.76 826.97"/><rect class="cls-75" x="708.68" y="806.23" width="9.44" height="15.35"/><rect class="cls-75" x="685.42" y="825.35" width="3.25" height="11.23"/><polygon class="cls-120" points="684.83 821.8 685.42 825.35 685.42 836.58 684.83 836.58 684.83 821.8"/><polygon class="cls-88" points="809.32 823.47 809.32 837.85 809.17 837.73 808.27 831.21 808.27 815.86 809.32 823.47"/><polygon class="cls-66" points="808.27 831.21 809.17 837.73 791.26 823.39 794.16 821.7 796.33 821.84 799.79 822.64 802.71 823.97 805.1 825.83 806.94 828.24 808.27 831.21"/><polygon class="cls-97" points="808.27 831.21 806.94 828.24 806.94 812.89 808.27 815.86 808.27 831.21"/><polygon class="cls-119" points="806.94 828.24 805.1 825.83 805.1 810.49 806.94 812.89 806.94 828.24"/><polygon class="cls-121" points="805.1 825.83 802.71 823.97 802.71 808.63 805.1 810.49 805.1 825.83"/><polygon class="cls-83" points="802.71 823.97 799.79 822.64 799.79 807.3 802.71 808.63 802.71 823.97"/><polygon class="cls-117" points="799.79 822.64 796.33 821.84 796.33 806.5 799.79 807.3 799.79 822.64"/><polygon class="cls-75" points="796.33 821.84 794.16 821.7 792.33 821.58 792.33 806.23 796.33 806.5 796.33 821.84"/><polygon class="cls-66" points="792.33 821.58 794.16 821.7 791.26 823.39 789 821.58 792.33 821.58"/><polygon class="cls-75" points="792.33 821.58 789 821.58 788.94 806.23 792.33 806.23 792.33 821.58"/><polygon class="cls-66" points="788.94 804.17 788.94 806.23 788.94 821.53 767.27 804.17 716.38 804.17 676.6 781.06 770.37 726.6 864.12 781.07 824.35 804.17 788.94 804.17"/><polygon class="cls-66" points="321.08 987.56 227.32 933.09 301.56 889.98 395.31 944.44 321.08 987.56"/><polygon class="cls-66" points="414.83 1042.02 321.08 987.56 395.31 944.44 489.07 998.91 414.83 1042.02"/><polygon class="cls-2" points="39.81 513.86 39.81 410.42 114.04 367.31 114.04 470.74 39.81 513.86"/><polygon class="cls-2" points="395.33 203.93 489.1 149.47 489.1 252.9 395.33 307.36 395.33 203.93"/><polygon class="cls-35" points="489.1 252.9 489.1 149.47 582.85 203.93 582.85 307.37 489.1 252.9"/><polygon class="cls-2" points="395.33 203.93 395.33 307.36 301.57 361.82 301.57 258.39 395.33 203.93"/><polygon class="cls-2" points="301.57 258.39 301.57 361.82 207.81 416.28 207.81 312.85 301.57 258.39"/><polygon class="cls-2" points="207.81 312.85 207.81 416.28 114.04 470.74 114.04 367.31 207.81 312.85"/><polygon class="cls-2" points="301.57 465.26 301.57 460.81 305.4 463.03 301.57 465.26"/><polygon class="cls-2" points="39.81 720.73 39.81 617.29 77.93 595.15 80.23 596.5 114.04 576.86 114.04 677.61 39.81 720.73"/><polygon class="cls-2" points="385.68 416.4 377.82 420.97 377.82 411.84 385.68 416.4"/><polygon class="cls-35" points="938.34 410.44 938.34 513.88 864.12 470.76 864.12 367.33 938.34 410.44"/><polygon class="cls-35" points="582.85 307.37 582.85 203.93 676.61 258.4 676.61 361.83 582.85 307.37"/><polygon class="cls-35" points="676.61 361.83 676.61 258.4 770.37 312.86 770.37 416.3 676.61 361.83"/><polygon class="cls-35" points="770.37 416.3 770.37 312.86 864.12 367.33 864.12 470.76 770.37 416.3"/><polygon class="cls-35" points="864.12 567.39 864.12 574.2 858.27 570.79 864.12 567.39"/><polygon class="cls-35" points="639.91 443.95 638.11 442.9 639.91 441.85 639.91 443.95"/><polygon class="cls-35" points="765.87 517.12 749.5 507.61 757.72 502.84 761.2 509.95 765.87 517.12"/><polygon class="cls-66" points="582.85 726.6 489.08 781.06 395.33 726.59 489.09 672.13 582.85 726.6"/><polygon class="cls-66" points="750.82 933.11 657.05 987.57 582.83 944.45 676.59 889.99 750.82 933.11"/><polygon class="cls-66" points="657.05 987.57 563.29 1042.03 489.07 998.91 582.83 944.45 657.05 987.57"/><polygon class="cls-66" points="395.31 944.44 489.07 889.98 582.83 944.45 489.07 998.91 395.31 944.44"/><polygon class="cls-2" points="395.33 514.23 489.1 459.77 489.1 563.21 395.33 617.67 395.33 514.23"/><polygon class="cls-35" points="489.1 563.21 489.1 459.77 582.85 514.24 582.85 617.67 489.1 563.21"/><polygon class="cls-2" points="395.33 514.23 395.33 617.67 301.57 672.13 301.57 568.69 395.33 514.23"/><polygon class="cls-35" points="582.85 617.67 582.85 514.24 676.61 568.7 676.61 672.14 582.85 617.67"/><polygon class="cls-66" points="489.09 672.13 395.33 726.59 301.57 672.13 395.33 617.67 489.09 672.13"/><polygon class="cls-66" points="301.57 672.13 395.33 726.59 301.56 781.05 207.81 726.59 301.57 672.13"/><polygon class="cls-66" points="489.09 672.13 395.33 617.67 489.1 563.21 582.85 617.67 489.09 672.13"/><polygon class="cls-35" points="676.61 568.7 770.37 623.17 770.37 726.6 676.61 672.14 676.61 568.7"/><polygon class="cls-66" points="582.85 726.6 489.09 672.13 582.85 617.67 676.61 672.14 582.85 726.6"/><polygon class="cls-35" points="770.37 726.6 770.37 623.17 864.12 677.63 864.12 781.07 770.37 726.6"/><polygon class="cls-66" points="582.85 726.6 676.61 672.14 770.37 726.6 676.6 781.06 582.85 726.6"/><polygon class="cls-35" points="864.12 781.07 864.12 677.63 938.34 720.75 938.34 824.19 864.12 781.07"/><polygon class="cls-2" points="114.04 677.61 207.81 623.15 207.81 726.59 114.04 781.05 114.04 677.61"/><polygon class="cls-2" points="114.04 677.61 114.04 781.05 39.81 824.16 39.81 720.73 114.04 677.61"/><polygon class="cls-2" points="207.81 623.15 301.57 568.69 301.57 672.13 207.81 726.59 207.81 623.15"/><polygon class="cls-66" points="582.84 835.52 589.48 831.67 589.23 834.08 589.23 839.24 582.84 835.52"/><polygon class="cls-32" points="426.9 332.67 427.09 332.21 437.68 338.37 436.21 341.97 426.9 336.56 426.9 332.67"/><polygon class="cls-2" points="427.09 332.21 426.9 332.67 426.9 313.92 427.58 313.52 427.58 327.7 427.09 332.21"/><polygon class="cls-122" points="427.09 332.21 427.58 327.7 438.17 333.86 437.68 338.37 427.09 332.21"/><polygon class="cls-3" points="427.58 327.7 427.58 313.52 430.41 311.87 430.69 311.74 438.17 316.09 438.17 333.86 427.58 327.7"/><polygon class="cls-123" points="437.79 311.89 438.17 316.09 430.69 311.74 434.33 310.02 434.57 310.01 437.79 311.89"/><polygon class="cls-13" points="436.65 309.94 437.79 311.89 434.57 310.01 436.65 309.94"/><polygon class="cls-1" points="428.73 348.32 426.9 349.38 426.9 347.25 428.73 348.32"/><polygon class="cls-39" points="433.36 345.13 428.73 348.32 426.9 347.25 426.9 341.38 433.36 345.13"/><polygon class="cls-4" points="436.21 341.97 433.36 345.13 426.9 341.38 426.9 336.56 436.21 341.97"/><polygon class="cls-124" points="242.74 829.88 242.33 825.62 242.33 810.27 242.74 814.55 242.74 829.88"/><polygon class="cls-66" points="242.33 825.62 242.74 829.88 242.74 852.53 242.27 855.54 223.72 844.76 223.72 826.27 231.78 821.59 237.84 821.96 241.08 823.14 242.33 825.62"/><polygon class="cls-125" points="242.33 825.62 241.08 823.14 241.08 807.8 242.33 810.27 242.33 825.62"/><polygon class="cls-94" points="241.08 823.14 237.84 821.96 237.84 806.61 241.08 807.8 241.08 823.14"/><polygon class="cls-75" points="237.84 821.96 231.78 821.59 231.42 821.56 231.42 806.22 237.84 806.61 237.84 821.96"/><polygon class="cls-66" points="231.42 821.56 231.78 821.59 223.72 826.27 223.72 821.56 231.42 821.56"/><rect class="cls-75" x="223.72" y="806.22" width="7.7" height="15.35"/><polygon class="cls-66" points="223.72 860.91 223.72 844.76 242.27 855.54 242.07 856.79 240.06 859.28 236.18 860.5 229.91 860.91 223.72 860.91"/><polygon class="cls-11" points="792.7 461.03 793.02 464.74 793.02 516.67 782.54 522.75 782.54 459.02 789.5 454.98 790.2 455.55 791.76 457.97 792.7 461.03"/><polygon class="cls-13" points="783.91 453.5 785.61 452.91 786.72 453.31 782.88 455.53 783.91 453.5"/><polygon class="cls-126" points="782.54 459.02 782.88 455.53 786.72 453.31 788 453.77 789.5 454.98 782.54 459.02"/><polygon class="cls-127" points="782.85 526.52 782.54 522.75 793.02 516.67 793.02 520.61 782.85 526.52"/><polygon class="cls-128" points="783.78 529.47 782.85 526.52 793.02 520.61 793.02 524.1 783.78 529.47"/><polygon class="cls-129" points="785.46 531.8 783.78 529.47 793.02 524.1 793.02 527.41 785.46 531.8"/><polygon class="cls-4" points="788 533.73 785.46 531.8 793.02 527.41 793.02 528.41 792.79 530.95 788 533.73"/><polygon class="cls-22" points="790.2 534.49 788 533.73 792.79 530.95 792.7 531.83 791.94 533.47 790.2 534.49"/><polygon class="cls-25" points="791.76 533.86 790.2 534.49 791.94 533.47 791.76 533.86"/><path class="cls-130" d="M69.64,587.39l8.13-4.72m-8.13-73.56v-2.95m0,0L114,480.37m0,0,2.85-1.65m60.56,49-31.09-33.25m1.29,47.44,1.22-.54M121.71,560.1v-3m0,0,2.82-2.21m0,0,2.38-2.73m0,0,1.93-3.23m0,0,1.5-3.75m0,0,1.9-8m0,0,.64-7.84m-11.17-50.57v-2.95m69.9-13-.73-10.47m0,0-.32-1.26m-13.11-4.72v-2.95m0,0,28.11-16.32m58.68,50.1-31.1-33.26m1.3,47.44,1.22-.53m-27.17,18.72v-2.95m0,0,2.82-2.21m0,0,2.38-2.72m0,0,1.94-3.24m0,0,1.49-3.74m0,0,1.91-7.95m0,0,.63-7.84m-11.17-50.58v-2.95m0,0,40.7-23.63m29.2,26.06V412.53m0,0-.73-10.46m0,0-.31-1.27m-13.11-4.71v-3m0,0,28.1-16.32m4.77,81.41v-3m0,0,4.46-2.59m0,0,3.57-2.07m-8-73.62V374m0,0,4.46-2.59m0,0L365,334.63m-2.36,27.8-.55-4m0,0-1.2-3.2M346.35,380.4l.11-.15m0,0,1.65-3.62m0,0,1.18-4.11m0,0,.71-4.59m0,0,.23-5.1m0,0,2.26-1.3m-2.26,43.24-.75-6.34m-3.13,26.27,4.44-4.84m0,0,4.21-5.75m0,0,2.87-4.91m5.21-12.82.54-1.71m0,0,1.35-7m0,0,2.25-1.31M432,375.1l-2.09-2.48m0,0L428.5,369m0,0-.77-7.43m0,0-.18-9.59M377.82,408.4l7.86-4.57M395.33,317l40.43-23.48m-58.36,33.9L395.33,317m40.43-23.48,6.31-3.29m0,0,5.09-1.85m0,0L451,288m0,0,2.65,1.06M426.9,332.67l.19-.46m0,0,.49-4.51M121.71,475.92l40.69-23.64m428.7-115.5,1.59-2.23m-5.52,9.62,2.74-5.53m-23,52.38,16-36.89m0,0,4.32-10m-63.3-60.56L565,307.5m0,2.89V307.5m4.53,43.42-9.25-37.79m16.32,1.11,6.26,3.64m0,0,16.79,9.75m0,2.89v-2.89m3.61,2.09,43.9,25.51m0,2.89v-2.89m-7.89,74.94V362.7m0,67.47.65.38m63.88-3.44-3.91-6.8m6.43,13.11-2.52-6.31m3.87,12.47-1.35-6.16m1.8,12.6-.45-6.44m.19,11.11.26-4.67m-1.06,8.62.8-3.95m-2.12,7.16,1.32-3.21m-3.18,5.69,1.86-2.48m-4.17,4.26,2.31-1.78M666.28,442.7l-3.55-5.78m9,12.45-5.49-6.67m5.49,6.67.45.36m-9.52-79.54,3.8-1.38m0,0,4.25-.1m0,0,4.69,1.19m0,0,1.17.56m0,0,4,1.91m0,0,7.65,5.56m4.47,4.53-4.47-4.53m9.7,11.16-5.23-6.63m5.23,6.63,9-3.33m0,30.48v-7.93m0-9.37V385.76m7.75,8.68,43.91,25.5m0,2.89v-2.89m-7.9,74.94V427.41m0,67.47,5.09,3m45.1-56,8.06,5.42m0,0,7.15,6.37m6.26,7.32-6.26-7.32m11.62,15.59L822.31,461m8.21,14.19-2.85-5.92M835,487.48l-1.93-5.85m3.77,15.51L835,487.48m2.46,19.68-.62-10m0,18.87.6-8.85m-2.41,16.11,1.81-7.26m-4.83,12.92,3-5.66M827.84,533l4.22-4.06m-57.75-90.67,5.38-2m0,0,6.21-.08m0,0L793,438m0,0,7.89,3.85m109.42,82.48.84-2.57m-1.49,11.91.65-9.34m-.65,65.76V533.69m-54.48-3.31v-.61m.76,12-.76-11.42m1.71,16.29-1-4.87m2.28,9.18-1.33-4.31m3,8.07L858.17,551m3.81,7-2.09-3.2m4.57,5.83-.34-.35m0,0L862,557.94m2.48,2.63,2.85,2.08m0,2.89v-2.89m-3.19-81.38,15.76,9.16m-37.81-22,22,12.81m21.36,22.15-5.6-13m14,8.12L920,513.73m0,2.88v-2.88m-629.27,340,.72-5.31m-2.88,10.48,2.16-5.17M285,863.9l3.6-5m-8.63,9.87,5-4.86m-11.35,9,6.32-4.18m-7.14,4.51.82-.33m-7.44,3,6.62-2.66m-15.17,4.45,8.55-1.79M248,878.32l9.67-.6m-89.7.59h80m-80-56.76h11.7m63.12,8.33-.41-4.27m0,0-1.25-2.48M237.84,822l3.24,1.18m-9.3-1.55,6.06.37m-6.42-.4.36,0m-8.06,0h7.7m-7.7,23.2V826.27m0,34.64V844.76m0-18.49v-4.71m77.46,56.76h20.45m0,0h80.5M301.18,821.57h11.56m86.14,16v-4.14m0,4.52v-.38m-3.39.38h3.39m-4.11-2.77-.07-.27m.21.83-.14-.56m.72,2.77-.58-2.21m-.21-.83-1.85-2.9M390,829.27l2.89,2.76M386,826.66l3.95,2.61m-9-4.84,5.06,2.23m-11.31-3.82,1.94.49m-3.49-.69,1.55.2m-7.44-1,5.89.75m-14.51-1.07,8.62.32m-10.43-.32h1.81m-1.81,10.13V821.57m19.89,36.82-.35-1.51m0,0-1.61-2.3m-2.27-1.94,2.27,1.94m-8-4.59,2,.94m0,0,3.7,1.71m-9-3.31,3.29.66m-6.85-.88,3.56.22m-6.65-.22h3.09m-3.09,8.77v-8.77m0,11.8v-3m136.92-26.74-.33-.54m-3.61-3.1,3.61,3.1m-8.61-5.7,5,2.6m-10.73-4.65,5.73,2m-11.53-3.52,5.8,1.47m-11.67-2.35,5.87.88m-7.4-1,1.53.07"/><path class="cls-130" d="M501.61,862.47,502,859m-1.64,6.59,1.23-3.15m-3.28,6,2.05-2.84M495.45,871l2.88-2.54m-6.46,4.77,3.58-2.23m-7.75,4.13,4.17-1.9M477.59,878l10.11-2.82m-17.43,3.93,7.32-1.11m-10.75,1.63,3.43-.52m-13.1,1.06,9.67-.54m-16.65.19,7,.35m-13.74-1.39,6.76,1M436.9,877l6.53,1.74m-12.84-4.18L436.9,877M417,880.73l13.59-6.18m18.35-15.35,8.1,2.59m-20.52-7.15,12.42,4.56m-21.29-9.55,8.87,5m-12-7.65,3.1,2.66m-3.1-2.66-2.22-2.77m0,0L421,841.35m0,0-.45-3m91.59,40h68m-68-56.76h11.7m44.1,0h12.23m-12.23,5.3v-5.3m0,22.61V826.87m0,34V844.18m125.41,9.72h7.09m-7.1,27.19v-.83m-11.62-6,10.91,6.38m0,0,.71.42m-19.64-4.25,8-2.55m-16.67,4.38,8.65-1.83m-15.26,2.61,6.61-.78m-9.28,1.09,2.67-.31m-12.59.68,9.92-.37m-21.84-.17,11.92.54M623.16,878l10.77,1.61m-20.4-4.3,9.63,2.69M605,871.53l8.49,3.76m-15.41-8.37,6.92,4.61m-6.92-4.61-4.94-5.22m0,0-3-5.83m0,0-1-6.45m95.34-12.84-1.07-2.37m0,0L681,831.36m-4.13-3.27,4.13,3.27m-9.6-6.41,5.47,3.14m-12-5.59,6.53,2.45m-13.7-4,7.17,1.58m-14.54-2.11,7.37.53m-13.44-.09,6.07-.44m-9.78,1.76,3.71-1.32m-5.6,3.85,1.89-2.53M638,828.77l.64-4.09m-.64,31V828.77m8.91,25.13h7.63M825.64,822l3.77-.42m-7,1.31,3.27-.89m-6,2.25,2.76-1.36m-5,3.19,2.27-1.83m-5.28,6.89,3-5.06m-4,12,1-6.93m-1,29.35V838.07m-24.39,40.26h24.39m-84.41-48.07,21.24,17m0,0,38.78,31.06m-60-35.38V830.26m-20.24,48.07h39.11m-29.67-56.75,6.65,5.39m-16.08-5.39h9.43m91.06,16.15-.9-6.52m0,0-1.33-3m0,0-1.85-2.41M802.71,824l2.38,1.86m-5.3-3.19,2.92,1.33m-6.38-2.13,3.46.8m-5.63-.94,2.17.14m-4-.26,1.83.12m-5.16-.12h3.33M489.1,46l-93.77,54.46M938.34,307l-74.22-43.12M489.06,1085.14,414.84,1042m-375-735V410.42M489.1,46V149.47M938.34,307V410.44M69.64,590.34v-3m8.13-4.72V513.83m55.11,15.61V484.69m58.73-6.34V462.94m28,16.1V434.28m85.48,16.33v-69m80.54,22.18V335.17m-8.28-4.81v-2.95m50.18.29V313.52M80.23,596.5v-3m0,0,8.13-4.72m0,0V510.54m0,0-8.13,4.72m0,0v-3m0,0,47.25-27.44m0,0v2.95m0,0L119,492.76M119,571l8.49-4.94M69.64,587.39l10.59,6.16m-2.46-10.88,10.59,6.16M69.64,506.16l10.59,6.15m36.66-33.59,10.59,6.15M119,561.17l8.49,4.93m88.67-129.78-2.62,2.12m0,0L211.27,441m0,0-1.92,3.06m-1.57,3.53-2.1,8.46m0,0-.7,10.33M205,524l-16.93,9.84m0,0-41.69-44.59m0,40.11.82,10.74m4.3,8.35,2.25.71m0,0,2.66-.32m0,0,3.08-1.35m0,3L132.3,566.25m0,0v-3m0,0,2.82-2.21m0,0,2.38-2.72m0,0,1.94-3.24m0,0,1.49-3.74m0,0,1.91-7.95m0,0,.63-7.84m0,0V486.26m0,0-4.61-5.05M132.3,485v-2.95m69.9,7.61V469.09m0,0-.73-10.46m0,0-.92-3.71m0,0-1.28-2.7m0,0-1.66-1.71m0,0-2-.72m-5.17,1.49-2.36,1.37m0,0V449.7m0,0,28.1-16.33m0,0v2.95M148.87,541.37l10.6,6.16m-37.76,9.62,10.59,6.15m4.53-80.91,6.64,3.87m-21.76-7.39L132.3,485m-10.59-9.1,10.59,6.15m30.1-29.79,10.6,6.16m4.45-11.95,10.6,6.16m-10.6-9.11,10.6,6.16M300.32,388l-2.27,2.59m0,0-1.92,3.06m0,0-1.57,3.53m0,0-2.09,8.45m0,0-.7,10.34m0,57.62-16.94,9.84m0,0-41.69-44.59m0,40.12.82,10.73m4.3,8.35,2.26.72m0,0,2.66-.32m0,0,3.07-1.36m0,2.95-27.16,15.78m0,0v-3m0,0,2.82-2.21m0,0,2.38-2.73m0,0,1.93-3.23m0,0,1.49-3.75m0,0,1.91-8m0,0,.64-7.84m0,0V435.85m0,0-4.62-5m-6.55,3.81v-3m0,0L259.78,408M289,439.28V418.69m0,0-.74-10.47m0,0-.91-3.71m0,0-1.29-2.7m0,0-1.65-1.7m0,0-2-.73m-5.18,1.49-2.36,1.37m0,0v-2.95m0,0L302.94,383m0,0v3M235.66,491l10.59,6.15m-37.76,9.62,10.6,6.16M223.61,432l6.65,3.86m-21.77-7.39,10.6,6.16m-10.6-9.11,10.6,6.15m30.1-29.78L259.78,408m4.46-11.94,10.59,6.15m-10.59-9.11,10.59,6.16m103,24.37-70.11,40.72m0,0v-2.95m0,0,8-4.66m0,0V378.48m0,0-8,4.66m0,0v-2.95m0,0,67.85-39.41m0,0v26.43m0,0-2.36,1.37"/><path class="cls-130" d="M373.2,368.58l-.55-4m0,0-1.28-3.41m0,0-2-2.78m0,0-2.74-2.15m-7.86-.9-5.16,1.63m0,0-6,3m0,0-1.26.73m0,36.47,2.15-1.25m0,0,4.53-3.76m0,0,4-5.75m0,0,1.65-3.62m0,0,1.18-4.11m0,0,.71-4.6m0,0,.24-5.09m0,0,2.25-1.31m-2.25,43.24-.9-7.56m0,0-1.12-2.64m0,0-1.57-1.87m0,0-4-1.48m-4.76,1.5-2.15,1.25m0,38.86,5.42-3.61m0,0,5-4.33m0,0,4.61-5m0,0,4.21-5.74m0,0,3.63-6.23m0,0,2.87-6.48m0,0,2.11-6.74m0,0,1.35-7m0,0,2.26-1.31m-80.71,62.75,10.6,6.16m-2.57-10.82,10.59,6.16M297.11,374l10.6,6.15M365,334.63l10.59,6.15m-12.95,21.65,10.59,6.15m-23-5.75,10.6,6.16m-8.34-7.46,10.59,6.15m1.89,20,10.59,6.16m-8.34-7.47,10.6,6.16M474,353.64l-1.86,7.95M469,368.36l-4.58,5.6m0,0-5.92,4.42m0,0-5.26,2.67m0,0-4.34,1.37m0,0-3.52.06m-2.8-1.23-2.08-2.47m0,0-1.38-3.68m0,0-.77-7.42m0,0L438.07,354m0,0-.38-3.83m0,0-1.14-1.82m-9.65,43.9,7.08-4.11m-46,29.66V414.8m0,0,8.28-4.82m0,0V331.7m0,0L388,336.51m0,0v-2.95m0,0,58.36-33.89m0,0,6.31-3.3m0,0,5.09-1.84m0,0,3.87-.39m0,0,2.64,1.06m0,0,1.78,2.06m0,0,1.27,2.62m0,0,1,6.92m0,0-.78,7.23m0,0-2.36,7.13m0,0-3.82,6.71m-5.15,6,6-.16m0,0,3.4,1.73m0,0,1.57,3.72m0,0,.52,5.8m0,15.55,1,.32m0,0,1.55-2.31m0,0,1.23-4.2m0,0,2.57-.68m-35.87-19.78V316.09m0,0-.38-4.2m0,0L436.65,310m-9.75,39.43,1.83-1.06m0,0,4.62-3.19m0,0,2.86-3.16m0,0,1.47-3.6m0,0,.49-4.51m29.41,16,6.46,3.75M432,375.1l10.59,6.15M426.9,384l7.08,4.12m-56.16,20.8L388,414.8m-2.31-11L396.27,410M377.4,327.41,388,333.56M453.67,289l10.59,6.16m-5.83,36.08,7.17,4.16m2.07,24.8,1,.59m-1.28-4,2.83,1.65M467.52,352l4,2.29M426.9,336.56l9.31,5.41M132.3,482.07,173,458.44M583.15,338.89,580,341.37m0,0-3.1,4.34m0,0-3.09,6.2m0,0-20.27,46.86m0,0-15.69-9.12m-22.12-92.38-5.22-3m0,0v-2.89m0,0,41.13,23.9m0,0v2.88m0,0-6.28-3.65m0,0L560,374m9.79-23.63,1.46-5m0,0,.54-4.63m0,0-.53-5.1m0,0-1.59-4.34m0,0L567,327.71m0,0-3.71-2.84m0,0V322m0,0,23,13.39m0,0v2.89m-62.44-54.65-13.34,7.74M565,307.5l-13.33,7.75m24.93-1L563.26,322m36.38,5.65-13.33,7.74m47.51,110-43.91-25.51m0,0V417m0,0,7.56,4.38m0-76.64-7.56-4.38m0-2.89L633.82,363m0,0v2.89m0,0-7.89-4.58m0,0v76.64m0,0,7.89,4.58m0,0v2.89m13.33-90.16L633.82,363m5.44,67.2-13.33,7.75m14,1-6.09,3.54m57.35-19.9-.52-6m-1.43-5.87L686.9,405m0,0-3.23-5.51m-3.7-5-3.74-4.22m-13.54-7-1.7,1.9m0,0-.56,3.3m0,0,.36,3m0,0,1.07,2.87m0,0,5.53,8m0,0,12,15.69m0,0,7.11,10m0,0,3.94,6.85m0,0,2.52,6.3m0,0,1.35,6.16m0,0,.45,6.44m0,0-.27,4.68m0,0-.79,3.94m0,0-1.32,3.21m0,0-1.86,2.49m0,0-2.31,1.78m-2.69,1.1-6.52.16m-6.94-1.75-6.25-2.86m0,0-4.5-3.11m0,0-4.36-4m0,0-4.22-4.88m-12.84-36.94L642.4,419m0,0v.37m0,0,.64,8.24m0,0L645,435.3m0,0,3.28,7.46m0,0,4.72,7.69m0,0,5.48,6.67m0,0,5.6,4.41m0,0,4.62,2m0,0,3.64.11m0,0,2.36-1.71m.78-3.44-.32-2.62m-28.33-43.14-2-4.89m0,0-1.43-4.71m0,0-.86-4.52m0,0-.29-4.35m0,0,.45-5.63m0,0L644,384m0,0,2.24-3.57m0,0,3.13-2.54m0,0,3.81-1.38m0,0,4.25-.09m0,0,4.69,1.19m0,0,5.14,2.47m0,0,7.65,5.55m0,0,4.47,4.53m0,0,5.23,6.63m0,0,9-3.33m0,0V424m8,38.13-13.33,7.75m-41.09-56.47-7.23,4.19m8.44-2-6,3.46m20.3-48.84-13.34,7.74m48.57,11.16-13.33,7.74m22.29-11.07-13.33,7.74m51.65,116.6-43.9-25.5m0,0v-2.89m0,0,7.55,4.39m-7.55-81v-2.89m0,0,43.9,25.5m0,0v2.89m0,0L737.32,426"/><path class="cls-130" d="M737.32,426v76.64m0,0,7.89,4.58m0,0v2.89m13.34-90.16-13.34,7.74m5.44,67.2-13.33,7.75m19.34-2.06-11.45,6.64m42.3-57.6,8.06,5.42m0,0,7.15,6.37m0,0,6.26,7.32m0,0,5.36,8.28m0,0,4.29,8.93m0,0,3.07,9.3m0,0,1.84,9.65m0,0,.62,10m0,0-.61,8.85m0,0L821.74,531m0,0-3,5.66m0,0-4.22,4.07M809.24,543l-6.16.21m0,0L796,541.38m0,0-7.93-3.85m0,0-8-5.37m0,0L773,525.77M753.6,491.5l-1.9-9.68m0,0-.64-10m0,0,.62-9m0,0,1.86-7.31m0,0,3.1-5.6m0,0L761,446m0,0,5.38-2m0,0,6.21-.08m0,0,7,1.89m0,0,7.89,3.84M793,464.74,792.7,461m0,0-.94-3.06m0,0-1.56-2.42m-4.59-2.64-1.7.59m0,0-1,2m0,0-.34,3.49m0,0v63.73m0,0,.31,3.77m0,0,.93,3m0,0,1.68,2.33m0,0,2.54,1.93m0,0,2.2.76m0,0,1.56-.63m36.08-.87-13.33,7.75M793,524.1l-9.24,5.37m122.88-5.11-2.44-.83m-2.11,0-1.78.86m0,0-1.46,1.71m0,0-2,6m0,0-.64,9.34m0,0v56.42m0,0-15.74-9.15M841.8,498.85v39.27m0,0,.76,11.42m0,0,1,4.87m0,0,1.33,4.32m0,0,1.72,3.75m0,0,2.09,3.2m0,0,2.47,2.64m0,0L854,570.4m0,0v2.89m0,0-25.24-14.67m0,0v-2.89m0,0,2.62,1m0,0,2.21,0m0,0,1.8-1m3.16-7.68.59-7m0,0V492.68m0,0-4.29-10.05m-6.09-3.54V476.2m0,0,37.81,22m0,0,27.14,63m0,0V541m0,0L893,529.92m0,0-.85-4.65m0,0L891,521.2m0,0-1.53-3.5m0,0-1.89-3m0,0-2.23-2.41m0,0-2.58-1.87m0,0-2.19-1.28m0,0V506.3m0,0,26.12,15.17m0,0v2.89m-39.35,38.29L854,570.4m25.9-80-13.33,7.74M920,513.73l-13.33,7.74M167.92,804.15h76.64m0,0,11.49.58m9.8,1.76,8.1,2.94m0,0,6.39,4.1m0,0,4.86,4.74m0,0,3.47,4.84m0,0,2.08,4.92m0,0,.69,5m0,0-.72,5.32m0,0-2.16,5.16m0,0-3.6,5m0,0-5,4.86m0,0-6.32,4.18m0,0-7.44,3m0,0-8.55,1.79m0,0L248,863m0,0h-80m0,0v-2.06m0,0h11.7m0-54.69h-11.7m0,0v-2.07m74.82,10.4-.41-4.27m0,0-1.25-2.48m0,0-3.24-1.19m0,0-6.42-.39m0,0h-7.7m0,54.69h6.19m0,0,6.28-.41m0,0,3.88-1.21m0,0,2-2.5m49.37-8.38V833.06M167.92,878.31V863m73.16-39.83V807.8m-17.36,13.76V806.22M402.13,863H301.18m0,0v-2.06m0,0h11.55m0-54.69H301.18m0,0v-2.06m97.7,18.46h-3.39m0,0-.79-3m0,0-1.85-2.9m0,0L390,813.92m0,0L386,811.31m0,0L381,809.08m0,0-6.25-1.59m0,0-7.44-1m0,0-8.62-.32m0,0h-1.81m0,25.48h3.09m0,0,6.52-.79m0,0,5.79-2.39m0,0,2.38-1.85m2.72-5.32.34-3.46m0,0h3.25m0,29.29h-3.24m0,0-1.3-5.65m0,0-1.61-2.29m0,0-2.27-2m0,0-5.72-2.64m0,0-3.29-.67m0,0-3.56-.22m0,0h-3.09m0,27.15,7.79-.33m0,0,7.21-1m12.71-4,5.23-2.88m0,0,4.13-3.36m0,0,3-3.85m0,0,1.94-4.34m0,0h3.25m-100.95,37.1V863m100.95,15.35V863m-100.95-41.4V806.22M395.49,838V822.62m-38.66-1V806.22M380.91,857v-9.85m-3.24,11v-11m-20.84,1.93V833.76m139.61-10.83-.82-4.09m0,0-2.2-3.59m0,0-3.61-3.1m0,0-5-2.59m0,0-5.73-2.06m0,0-5.8-1.46m0,0-5.87-.88m0,0-5.93-.3m0,0-5.13.45m0,0-4.05,1.35m0,0-2.63,2.06m0,0-.88,2.59m0,0,.56,2m28.86,11.24,11,4.17m12.1,10.55.7,4.41m0,0-.41,3.44m0,0-1.23,3.15m0,0-2.05,2.84m0,0-2.88,2.54m0,0-3.58,2.23m0,0-4.17,1.9m0,0-10.11,2.82m0,0-10.75,1.63m0,0-9.67.54m0,0-7-.34m0,0-6.76-1m0,0-6.53-1.74m0,0-6.31-2.44m0,0L417,865.39m0-24.78h3.85m0,0v.26m0,0,1,5.62"/><path class="cls-130" d="M421.85,846.49l3,4.67m0,0,5.08,4m0,0,7.3,3.54m0,0,8.5,2.48m0,0,8.68.83M472,855.08l-.5-1.74m0,0-1.5-1.61m0,0-5.39-2.85m0,0-15.71-5m0,0-12.42-4.56m0,0-8.87-5m0,0-3.1-2.66m0,0-2.22-2.76m0,0L421,826m0,0-.45-3m.7-4.2,2.08-3.84m0,0,3.47-3.48m0,0,4.85-3.11m0,0,5.9-2.56m0,0,6.58-1.83m0,0,7.27-1.09m8-.37,11.86.79m0,0,6.93,1.38m0,0,8.09,2.57m0,0,13.9-6.1m0,21.75h-3.69m0,10v-10M502,859V843.68m-71.43,30.87V859.2M417,880.73V865.39m3.55-27V823m79.58,14.08V822.93m80,40.05h-68m0,0v-2.06m0,0h11.7m0-54.69h-11.7m0,0v-2.07m68,0v2.06m0,0H567.94m0,54.69h12.23m0,0V863m-68-41.41V806.23m55.8,15.34V806.23m132.5,32.32h-7.09m0,27.19L681.72,859m0,0-8,2.55m0,0-8.65,1.82m0,0-9.28,1.09m0,0-9.92.37m0,0-11.92-.54m0,0-10.77-1.61m0,0-9.63-2.69m0,0L605,856.18m0,0-6.92-4.6m0,0-4.94-5.22m0,0-3-5.84m0,0-1-6.44m.47-4.6,1.44-4.39m0,0,2.38-4.2m0,0,3.34-4m0,0,4.12-3.62m0,0,4.74-3.08m0,0,5.36-2.53m0,0,6-2m0,0,6.45-1.49m0,0,6.78-1.06m14.52-.85,8.07.31m0,0,7.5.94m0,0,7,1.56m0,0,6.4,2.19m0,0,14.95-4.91m0,23h-3.25m0,0-.59-3.55m0,0-1.33-2.94m0,0L681,816m0,0-4.13-3.28m0,0-5.47-3.14m0,0-6.53-2.45m0,0-7.17-1.58m0,0-7.37-.53m0,0-6.07.44m0,0-3.71,1.32m0,0-1.89,2.53m0,0-.64,4.09m0,42.29.48,2.79m0,0,1.45,2m0,0,2.4,1.2m0,0,3.37.4m0,0,3.87-.45m0,0,2.76-1.37m0,0L654,858m0,0,.56-3.19m0-16.27h-7.63m0,0v-2m53.53,0v2m-7.09,15.35V838.55m-11.63,35.74V859m6.95-22.37V825.35m-3.25,11.23V825.35m-44.89-3.2V806.8m-2.53,22V813.42m8.91,40.48V838.55m182.5-32.32-3.77.42m0,0-3.27.89m0,0-2.76,1.36m0,0-2.27,1.83m0,0-3,5.06m0,0-1,6.93m0,40.26H788.93m0,0-60-48.07m0,28,1.18,7.82m0,0,1.47,3.09m0,0,2.07,2.52m2.65,2,3.25,1.41m0,0,3.83.86m0,0,4.42.3m0,0V863m0,0H708.67m0,0v-2.06m0,0,4.06-.4m0,0,3.43-.94m0,0,2.78-1.47m0,0,2.15-2m0,0,2.75-4.78m0,0,.92-5.22m0-34.47-6.65-5.4m0,0h-9.43m0,0v-2.06m100.64,33.68V823.47m0,0-1.05-7.61m0,0-1.33-3m0,0-1.85-2.4m0,0-2.38-1.86m0,0-2.92-1.33m0,0-3.46-.8m0,0-4-.27m0,0h-3.39m0,0v-2.06m40.47,0v2.06m-16.09,31.84V822.72m0,55.61V863m-24.39,15.35V863m-60-32.72V814.91m-10.8,6.67V806.23m-9.43,15.35V806.23m80.26,15.3v-15.3m188.47,40.24L489.06,1130.11M489.1.65,977.41,284.32m-976.66,0L489.1.65M977.41,846.47V284.32M395.33,100.49,301.57,155m93.76-54.46V203.93m-93.76-49-93.76,54.46M301.57,155V258.39m-93.76-49L114,263.87m93.77-54.46V312.85m-93.77-49L39.81,307M114,263.87V367.31M582.85,100.5,489.1,46m93.75,54.47V203.93m93.76-49L582.85,100.5M676.61,155V258.4m93.75-49L676.61,155m93.75,54.47V312.86m93.76-49-93.76-54.46m93.76,54.46V367.33M227.32,933.09l-93.75-54.46M321.08,987.56l-93.76-54.47M414.84,1042l-93.76-54.46m168-838.09V252.9m0,0V356.34m0,0V459.78M39.81,410.42V513.86M489.1,149.47l-93.77,54.46m0,0V307.36m-93.76-49V361.82m-93.76-49V416.28m-93.77-49V470.74M395.33,203.93l-93.76,54.46m-93.76,54.46L114,367.31M301.57,258.39l-93.76,54.46M114,367.31,39.81,410.42m0,103.44V617.29M489.1,252.9l-93.77,54.46m0,0V317m-93.76,44.83v9.63m0,8.13v2.59m0,4.85v65.66m0,8.13v4.45m-93.76-49v12.24m0,19v72.17m-93.77-49v9.63m93.77-64.09L114,470.74M301.57,361.82l-93.76,54.46M395.33,307.36l-93.76,54.46M114,470.74,39.81,513.86m0,103.43V720.73M489.1,356.34l-19.92,11.57m-24.55,14.26L434,388.35m-38.65,25.13V514.23"/><path class="cls-130" d="M301.57,465.26V568.69m-93.76-49V623.15M114,576.86V677.61m93.77-157.89L205,521.36m-19.24,11.18L159.47,547.8M130,564.91l-2.52,1.46m258.2-150L377.82,421M305.4,463l-3.83,2.23M77.93,595.16,39.81,617.29m261.76-152-9.8,5.69m-19.25,11.18-26.27,15.26m-29.47,17.12-9,5.21M938.34,410.44V513.88M489.1,149.47l93.75,54.46m0,0V307.37m93.76-49V361.83m93.75-49V416.3m93.76-49V470.76m-93.76-157.9,93.76,54.47M582.85,203.93l93.76,54.47M864.12,367.33l74.22,43.11m-261.73-152,93.75,54.46m168,201V617.32M489.1,252.9l93.75,54.47m0,0v10.51m0,36.25V410.8m93.76-49v8.63m93.75,45.84v24.25m93.76,30.21v10.51m0,69.36v9.59m0,7.17v6.81M582.85,307.37l93.76,54.46M864.12,470.76l74.22,43.12m-261.73-152,93.75,54.47m0,0,93.76,54.46m74.22,146.56V720.75M489.1,356.34l47.39,27.53m21.36,12.41,25,14.52m0,0V514.24m93.76-43.72V568.7m93.75-46V623.17m93.76-49V677.63m0-103.43,13.55,7.87m22.89,13.3,37.78,22M582.85,410.8l8.86,5.15m46.4,26.95,1.8,1.05m8.46,4.91.68.4m37,21.49,17.07,9.91m46.39,26.95,16.37,9.51m44,25.58,20.63,12m27.73,16.11,5.85,3.4M844.58,878.65l-93.76,54.46m-168-206.51-93.77,54.46M750.82,933.11l-93.77,54.46m-168-206.51L451.47,802.9M421,820.63l-22.07,12.82m184,2.07-14.9,8.66m-55.8,32.41L489.07,890m187.52,0-93.76,54.46M676.59,890l74.23,43.12M489.08,781.06l39.77,23.1m39.09,22.71,14.9,8.65M395.33,726.59l93.75,54.47m168,206.51L563.29,1042M394.91,835.76l-14,8.13m-12.12,7-12,7m-35.2,20.44L301.55,890m187.52,0-93.76,54.46m187.52,0-93.76,54.46m93.76-54.46,74.22,43.12M301.56,781.05l39.78,23.11m31.81,18.48,3.06,1.78m4.71,2.73,13.85,8.05m4.11,2.39L417,848.12m53.27,30.94L489.07,890m0,0,93.76,54.47M563.29,1042l-74.23,43.11M301.55,890l-74.23,43.11m168,11.35-74.23,43.12m168,11.35L414.84,1042m74.23-43.11L563.29,1042M301.55,890l93.76,54.46M223.72,844.76l18.55,10.78m30.52,17.73L301.55,890m93.76,54.46,93.76,54.47m0,131.2L.75,846.44m0,0V284.29M489.1,459.78l-93.77,54.45m0,0V617.67m543,206.52-93.76,54.46m-31.26-18.16,31.26,18.16m19.54-97.58-39.78,23.1M794.16,821.7l-2.9,1.69M582.85,514.24V617.68M489.1,459.78l93.75,54.46M114,677.61V781.05M301.57,672.13l93.76,54.46m93.76-54.45-93.76,54.45m0-108.92,93.76,54.47M676.61,568.7l93.75,54.47m-281.27,49,93.76,54.46M395.33,514.23l-93.76,54.46M114,781.05l53.88,31.3m133.64-31.3-41.9,24.34m-27.88,16.2-8.06,4.68m-15.91-99.68,93.75,54.46M179.62,851.88l-46.05,26.75m0,0L39.81,824.16m730.55-201V726.6m-93.75-54.46L582.85,726.6m0-108.92-93.76,54.46M676.61,568.7V672.14m187.51,5.49V781.07M395.33,726.59l-93.77,54.46m-93.75-157.9L114,677.61m0,0L39.81,720.73m0,0V824.16M770.36,726.6,676.6,781.06m261.74-60.31V824.19M582.85,726.6l93.75,54.46m-375-212.37-93.76,54.46m93.76-54.46V672.13m562.55,5.5,74.22,43.12M582.85,514.24l93.76,54.46m93.75,54.47,93.76,54.46M207.81,623.15V726.59M489.1,563.21l93.75,54.47M864.12,781.07l74.22,43.12M582.85,617.68l93.76,54.46m0,0,93.75,54.46m0,0,93.76,54.47m-375-217.86-93.77,54.46m0,0-93.76,54.46M114,781.05,39.81,824.16m261.76-152-93.76,54.46m0,0L114,781.05m562.56,0-37.06,21.53m-50.06,29.08-6.64,3.85m0,0,6.39,3.72m69.21,40.21L676.59,890m0,0,16-9.32m.71-.41,15.33-8.9M734,856.65l16.16-9.38m-33.78-43.1L676.6,781.06M398.88,833.45V822.62m-18,24.56v-3.29m312.43,36.37V865.74m0,0V853.9m120,9.08v-2.49M127.48,569.06,114,576.86m0,0L80.23,596.5M119,492.76v68.41m0,0V571m8.49-4.94v.27m0,0v2.69M69.64,590.34l8.29,4.82m0,0,2.3,1.34M69.64,509.11l8.13,4.72m0,0,2.46,1.43m129.12-71.17-1.54,3.46M205,466.41v54.95m0,0V524m-58.62-34.75v5.18m0,0V529.4m.82,10.74.47,1.77m0,0,.55,2.05m0,0,.12.23m0,0,1.32,2.55m0,0,.22.21m0,0,1.62,1.54m8-1v.27m0,0v2.68m-26.59-65.79-.58.33M173,458.44l18.61,19.91m0,0,10.59,11.33m-6.62-39.89-.42,0m0,0-2,.21m-2.62,1.17-.15.07m-13,76.44,8.29,4.82m0,0,2.31,1.34M121.71,560.1l8.29,4.81m0,0,2.3,1.34m73.26-139,2.25,1.3m0,0,8.34,4.85m86.79-47.45-1.37,1.1m0,0-1.25,1m-8.55,28V471m0,0v2.68m-58.63-34.75v5.18m0,0V479m.82,10.73.48,1.77m0,0,.55,2.05m0,0,.12.24m0,0,1.31,2.54m0,0,.22.22m0,0,1.62,1.53m8-1v.27m0,0v2.68m-26.59-65.79-.57.34M259.78,408l18.61,19.91"/><path class="cls-130" d="M278.39,427.94,289,439.28m-6.62-39.9-.42.05m0,0-2,.21m-2.62,1.16-.16.07m-12.95,76.45,8.28,4.81m0,0,2.31,1.34m-66.34,26.22,8.29,4.82m0,0,2.31,1.34m73.25-139,9.23,5.36m0,0,1.37.79m63.68-26.75-2.18-.71m0,0-1.34-.43m-2.24.12-2.1.12m-12.41,5.39v19.7m16.73,21.92v7.29m0,0-.74.43m0,0-1.51.88m-7.57-13.55-.17,0m0,0-2.11.35m-1.5.68-1,.44m-2.15,33.35V439m31.47-18v2.69M305.4,463l2.31,1.35m-2.57-82.73,2.57,1.49m42.52,21.63,7.64,4.43m0,0,3,1.72m111.35-49.33-3,6.32m0,0-.21.45m-23.62,14.12-.72-.31m0,0-2.08-.92m-6-32.95h-2m0,0h-.23m0,0L431,349.85m0,0-.23.11m0,0-3.23,2m0,0-.65.4m0,0V384m0,0v8.23m7.08-4.11v.26m0,0V391m0,0-38.65,22.44m0,0L388,417.75m70.3-86.31-2.08,2.43m11.2,23,0,1.14m0,0,.29,2.23m0,0,0,.27M436.65,310l-2.08.06m0,0h-.24m0,0-3.64,1.72m0,0-.28.13m0,0-2.83,1.65m0,0-.68.4m0,33.33v2.13m-49.08,62.46,7.86,4.57m0,0,2.31,1.34M377.4,330.36l8.28,4.81m0,0,2.31,1.34m198.32,1.75-1.42.28m0,0-1.74.35m-45.28,50.76-1.38-5.78m0,0-20.74-86.6M560,374l9.57-23.1m0,0,.22-.53m29.9-19.87-6.95,4m0,0-6.38,3.71M566.89,391l-9,5.26m0,0-4.29,2.49M565,310.39l-4.72,2.74m0,0-8.61,5m45.81,103.25v-8.77m0,0V344.74m-7.56-4.38v-1.72m50,103.21-1.8,1m0,0-4.29,2.49m-36.35-32.78L591.71,416m0,0-1.8,1.05m13.34-87.28-12.15,7.06m0,0-1.19.69m57.24,20.65-7.89,4.58m0,0-5.44,3.16m56.83,50.7-1.08-4.44m0,0-.35-1.43m-5.55-11.2-3.41-4.63m0,0-.29-.4m-3.74-4.22-2.86-2.6m0,0-.93-.84m0,0-1.67-1.15m0,0-2.16-1.48m0,0-.49-.19m0,0-2.82-1.1m0,0-.52.07m0,0-2.09.3m25.54,86.61-2.19.89m0,0-.5.21m-6.52.16-2.41-.6m0,0-4.53-1.15m-19.33-14.85-3.7-5.26m0,0-.37-.52m0,0-.31.12m0,0-8.46,3.45m0-21.76v-13m34.74,44.36.49-2.16m0,0,.29-1.28m-.32-2.62-.22-.66m0,0-.75-2.17m0,0-1.92-3.32m0,0-1.56-2.7m0,0-7.93-10.11m-2.21-2.81-4-5.53m0,0-4-5.52m0,0-.39-.69M693.5,424l-2.33-1.35m15.72-6.36-7,4.07m0,0L693.56,424m15.3,62.12v-8.78m0,0V409.46m0,0-2-1.15m0,0-5.58-3.24m56.41,97.77-8.22,4.77m0,0-4.29,2.49m-36.35-32.78-5.75,3.34m0,0-1.8,1m13.33-87.27-7.75,4.5m0,0-5.58,3.24m57.24,20.65-7.9,4.58m0,0-5.44,3.16m69.3,110.17-4.6,2m0,0-.67.29M773,525.77l-2.63-3.08m0,0-3.68-4.32m0,0-.81-1.25m0,0L761.2,510m0,0-3.48-7.11m0,0-1-2m-1-3-2.14-6.34M793,528.41v-1m-2.82-71.86-.71-.57m0,0L788,453.77m0,0-1.28-.46m0,0-1.11-.4m6.15,80.95.18-.39m0,0,.76-1.64m0,0,.09-.88m0,0,.23-2.54m-18.71-90.15-3.95,2.29m0,0L761,446m143.24,77.53h-.89m0,0-1.22,0m-21.57,65.15-2.87-6.64m-39.94-31.56.8-2.55m-3.7-65.33-1.73-1m86.89,35-8.89,5.17m0,0-4.44,2.58m3,65.75-9.05,5.26m0,0-4.28,2.49m-38-27.06L854,573.29m-16.25-22.78-7.19,4.18m0,0-1.8,1m13.33-87.27-11.55,6.71m0,0-1.78,1m65.13,22.35-8.39,4.87m0,0-4.94,2.88M256.05,804.74l3.61.65m0,0,6.19,1.11m-86.23,15.06V806.22m63.12,46.31V829.89m0,0V814.55m-.67,42.24.2-1.25m0,0,.47-3m-74.82-31v-9.21m0,0v-6.13m144.81,54.69V821.57m0,0V806.22m-11.56-2.06h40.16m0,0h57.55m-24.28,22.51,1.6-2.25m0,0,.1-.15m0,0,.33-.94m0,0,.69-2m-5.5,38.25,4.89-1.21m1.75-.44,2.44-.92m0,0,3.63-1.38m64.81-42.34.32.3m0,0,1.35,1.3m5.33,2.13,3.24,1.29m6.29,2.1,12.33,4.12m11,4.17,4.53,2.42m0,0,1.58.84m0,0,.29.26m3.61,3.19.9,1.67m0,0,1.19,2.17M417,865.39V848.12m0,0v-7.51M454.38,862l2.66-.18m0,0,4.5-.3m0,0,3.11-.79m0,0,2.52-.64m0,0,2.87-1.73m0,0,.79-.47m0,0,.71-1.64"/><path class="cls-130" d="M471.54,856.22l.5-1.14M420.55,823l.4-2.39m0,0,.3-1.81m30.22-15.92,7.89-.36m64.48,58.38V821.57m0,0V806.23m-11.7-2.07h16.71m0,0h51.32m-68,74.15v-1.73m0,0V863m77.09-28.9.25-2.41m0,0,.22-2.19m40.58-26.35,9.26-.54m0,0,5.26-.31m9.74,52.54v-.92m0,0V838.55m34.13-2h11.77M589.23,849.42V839.24m0,0v-5.16m144.4,22.3.36.27m0,0,2.29,1.7M724.76,846.1V827m0,0V811.63m-16.08-7.46h7.69m0,0h50.9m41.9,33.56.15.12m-20.38-33.68h35.4m0,0h5.07M708.67,878.33v-7m0,0V863M138.86,481.21l-2,1.18m0,0-4,2.3M193.18,450l-.58.26m0,0-2,.91m35.08-20.4-2,1.18m0,0-4,2.29M280,399.64l-.58.25m0,0-2,.91m85.75-45.73-2,.11m0,0h-.25m-14.51,39.48v2.5m16.73-29.49v28.7m0,0v5.94M351,397.75l-.39.18m0,0-1.11.5m-3.13,1.69V424.7m31.47-12.86V421m-80.71,37.25,4.46,2.59m0,0L305.4,463m-8.29-86,4.46,2.59m0,0,3.57,2.07m156.22-53.78-2.93,3.41m0,0-.14.16M467.52,352l-.11,4.84M426.9,341.38v5.87m163-8.61v-.48m0,0v-.69m50,114.84V444m22.82-7-1.39-1.77m0,0-.82-1m96.24,66.77-.1-.31m0,0-.92-2.73M793,527.41V524.1m84.65,58-13.55-31.44m-27.37,3,0-.08m0,0,1-3m-4.63-68.88-3.53-2.05m0,0-.83-.49m38.57,86.45-3.19,1.85m0,0-5.85,3.41M179.62,860.91v-9m0,0V821.56m197.1,36.83.95-.24m0,0,.8-.2m2.45-30.8v-2.73m0,0v-6.53m70.1-3,1.28.51m0,0,4.05,1.62m3.24,1.29,1.89.63m0,0,4.4,1.47m29.74,11.81.82.72m0,0,2.79,2.47m147.68,1.15h37.66m106.69-13.19,17.91,14.34M346.35,380.4v7.88m0,0v6.39m0,30V425m0,0v7.23m31.47-39.7V408.4M467.69,345l-.11,4.93m0,0-.06,2.14M426.9,336.56v4.82M639.91,444v-2.1m12.21-19.48-3.61-6.52m0,0-.16-.28m0,0-1.21-2.18m0,0-.36-.65M793,524.1v-3.49m71.1,30-9-20.86m0,0L841.8,498.85M685.42,836.58h3.25m100.33-15,2.26,1.81m-413.44-415v.49m0,0v2.95m49.08-97.92v18.75m0,0v3.89m213,105.29V439m0,0v-8.41M793,520.61v-3.94m0,0V464.74M684.57,836.58h.26m0,0h.59m81.85-32.41,21.67,17.36M398.89,804.16v18.46m-18,21.27V827.15m21.21,14.07V863m98-61.79v21.75m80-1.36V806.23m0,72.1V863m108.5-60.61v23m11.77,28.55V838.55m47.34,39.78V863m81.63-41.4V806.23m6-250.59,1.38-2M977.41,846.47,489.06,1130.11M977.41,846.47V284.32M489.06,1130.11.75,846.44M489.1.65,977.41,284.32M.75,846.44V284.29m0,0L489.1.65"/></svg>